{
	"asset":{
		"generator":"Khronos glTF Blender I/O v4.0.44",
		"version":"2.0"
	},
	"extensionsUsed":[
		"KHR_materials_unlit"
	],
	"scene":0,
	"scenes":[
		{
			"name":"Scene",
			"nodes":[
				0
			]
		}
	],
	"nodes":[
		{
			"mesh":0,
			"name":"Cube",
			"rotation":[
				0,
				-0.7070906758308411,
				0,
				0.7071228623390198
			],
			"scale":[
				0.9494915008544922,
				0.9494915008544922,
				0.9494915008544922
			]
		}
	],
	"materials":[
		{
			"doubleSided":true,
			"extensions":{
				"KHR_materials_unlit":{}
			},
			"name":"Material",
			"pbrMetallicRoughness":{
				"baseColorTexture":{
					"index":0
				},
				"metallicFactor":0,
				"roughnessFactor":0.9
			}
		}
	],
	"meshes":[
		{
			"name":"Cube",
			"primitives":[
				{
					"attributes":{
						"POSITION":0,
						"NORMAL":1,
						"TEXCOORD_0":2
					},
					"indices":3,
					"material":0
				}
			]
		}
	],
	"textures":[
		{
			"sampler":0,
			"source":0
		}
	],
	"images":[
		{
			"mimeType":"image/jpeg",
			"name":"fish_basic_red",
			"uri":"fish_basic_red.jpg"
		}
	],
	"accessors":[
		{
			"bufferView":0,
			"componentType":5126,
			"count":252,
			"max":[
				8.82011890411377,
				2.91477632522583,
				1.2851985692977905
			],
			"min":[
				-5.831033229827881,
				-2.91477632522583,
				-1.2851985692977905
			],
			"type":"VEC3"
		},
		{
			"bufferView":1,
			"componentType":5126,
			"count":252,
			"type":"VEC3"
		},
		{
			"bufferView":2,
			"componentType":5126,
			"count":252,
			"type":"VEC2"
		},
		{
			"bufferView":3,
			"componentType":5123,
			"count":384,
			"type":"SCALAR"
		}
	],
	"bufferViews":[
		{
			"buffer":0,
			"byteLength":3024,
			"byteOffset":0,
			"target":34962
		},
		{
			"buffer":0,
			"byteLength":3024,
			"byteOffset":3024,
			"target":34962
		},
		{
			"buffer":0,
			"byteLength":2016,
			"byteOffset":6048,
			"target":34962
		},
		{
			"buffer":0,
			"byteLength":768,
			"byteOffset":8064,
			"target":34963
		}
	],
	"samplers":[
		{
			"magFilter":9728,
			"minFilter":9984
		}
	],
	"buffers":[
		{
			"byteLength":8832,
			"uri":"fish_basic_red.bin"
		}
	]
}
