{
	"asset":{
		"generator":"Khronos glTF Blender I/O v4.0.44",
		"version":"2.0"
	},
	"extensionsUsed":[
		"KHR_lights_punctual"
	],
	"extensionsRequired":[
		"KHR_lights_punctual"
	],
	"extensions":{
		"KHR_lights_punctual":{
			"lights":[
				{
					"color":[
						1,
						0.9482555985450745,
						0.8989405035972595
					],
					"intensity":54.35141306588226,
					"type":"point",
					"range":40,
					"name":"Point"
				}
			]
		}
	},
	"scene":0,
	"scenes":[
		{
			"extras":{
				"cube_map":{},
				"uuid":"1bc11661-d442-42c5-adc6-ab085b13b71c",
				"assets reported":{}
			},
			"name":"Scene",
			"nodes":[
				7,
				8,
				9,
				10
			]
		}
	],
	"nodes":[
		{
			"name":"Camera",
			"rotation":[
				-0.2564818263053894,
				0.02993648126721382,
				-0.03662167862057686,
				0.9653909802436829
			],
			"scale":[
				0.9999998807907104,
				0.9999999403953552,
				0.9999999403953552
			],
			"translation":[
				0.37013915181159973,
				0.2859637141227722,
				0.045764029026031494
			]
		},
		{
			"name":"Tail",
			"rotation":[
				5.295279947858944e-08,
				4.0512531995773315e-08,
				1.1005854894108325e-08,
				1
			],
			"scale":[
				1.0000001192092896,
				1.0000001192092896,
				1
			],
			"translation":[
				-1.5366822481155396e-07,
				1.5729706287384033,
				1.494772732257843e-07
			]
		},
		{
			"children":[
				1
			],
			"name":"Mid Back",
			"rotation":[
				-0.062343765050172806,
				-2.155179146257069e-07,
				-0.04259509593248367,
				0.997145414352417
			],
			"scale":[
				0.9999999403953552,
				1,
				1
			],
			"translation":[
				-3.950688665099733e-10,
				1.3078560829162598,
				3.819777916191924e-08
			]
		},
		{
			"children":[
				2
			],
			"name":"Mid Front",
			"rotation":[
				0.04591137543320656,
				-6.879146585703211e-09,
				0.03136800602078438,
				0.99845290184021
			],
			"scale":[
				0.9999999403953552,
				1,
				0.9999998211860657
			],
			"translation":[
				-1.2304726126899368e-08,
				1.2167004346847534,
				-6.046819045479879e-09
			]
		},
		{
			"children":[
				3
			],
			"name":"Head",
			"rotation":[
				-0.37493017315864563,
				0.33744579553604126,
				0.8460046648979187,
				0.1727248579263687
			],
			"scale":[
				0.9999999403953552,
				0.9999997615814209,
				0.9999999403953552
			],
			"translation":[
				0.0006948675727471709,
				0.11120877414941788,
				0.13692563772201538
			]
		},
		{
			"name":"neutral_bone",
			"rotation":[
				-0.7071067690849304,
				0,
				0,
				0.7071067690849304
			]
		},
		{
			"mesh":0,
			"name":"Player",
			"skin":0
		},
		{
			"children":[
				6,
				0,
				4,
				5
			],
			"name":"Armature",
			"rotation":[
				-0.41449934244155884,
				0.2578669786453247,
				0.12371920049190521,
				0.8639379143714905
			],
			"scale":[
				2.491211414337158,
				2.491211414337158,
				2.491211414337158
			],
			"translation":[
				0,
				0,
				-7.251743316650391
			]
		},
		{
			"extensions":{
				"KHR_lights_punctual":{
					"light":0
				}
			},
			"name":"Point",
			"rotation":[
				-0.628235936164856,
				0,
				0,
				0.7780229449272156
			],
			"translation":[
				0.0004303455352783203,
				0.5701519846916199,
				-10.014667510986328
			]
		},
		{
			"name":"Side Ref",
			"rotation":[
				0.5,
				0.5,
				-0.5,
				0.5
			],
			"scale":[
				3.4324018955230713,
				3.4324018955230713,
				3.4324018955230713
			],
			"translation":[
				7.6284918785095215,
				-0.6586470603942871,
				-1.743082880973816
			]
		},
		{
			"name":"Front Ref",
			"rotation":[
				0,
				0.7071066498756409,
				-0.70710688829422,
				5.338507236274381e-08
			],
			"scale":[
				3.4324018955230713,
				3.4324018955230713,
				3.4324018955230713
			],
			"translation":[
				-0.14062689244747162,
				0.29876264929771423,
				12.135971069335938
			]
		}
	],
	"animations":[
		{
			"channels":[
				{
					"sampler":0,
					"target":{
						"node":0,
						"path":"translation"
					}
				},
				{
					"sampler":1,
					"target":{
						"node":0,
						"path":"rotation"
					}
				},
				{
					"sampler":2,
					"target":{
						"node":0,
						"path":"scale"
					}
				},
				{
					"sampler":3,
					"target":{
						"node":4,
						"path":"translation"
					}
				},
				{
					"sampler":4,
					"target":{
						"node":4,
						"path":"rotation"
					}
				},
				{
					"sampler":5,
					"target":{
						"node":4,
						"path":"scale"
					}
				},
				{
					"sampler":6,
					"target":{
						"node":3,
						"path":"translation"
					}
				},
				{
					"sampler":7,
					"target":{
						"node":3,
						"path":"rotation"
					}
				},
				{
					"sampler":8,
					"target":{
						"node":3,
						"path":"scale"
					}
				},
				{
					"sampler":9,
					"target":{
						"node":2,
						"path":"translation"
					}
				},
				{
					"sampler":10,
					"target":{
						"node":2,
						"path":"rotation"
					}
				},
				{
					"sampler":11,
					"target":{
						"node":2,
						"path":"scale"
					}
				},
				{
					"sampler":12,
					"target":{
						"node":1,
						"path":"translation"
					}
				},
				{
					"sampler":13,
					"target":{
						"node":1,
						"path":"rotation"
					}
				},
				{
					"sampler":14,
					"target":{
						"node":1,
						"path":"scale"
					}
				}
			],
			"name":"ArmatureAction",
			"samplers":[
				{
					"input":8,
					"interpolation":"STEP",
					"output":9
				},
				{
					"input":8,
					"interpolation":"STEP",
					"output":10
				},
				{
					"input":8,
					"interpolation":"STEP",
					"output":11
				},
				{
					"input":8,
					"interpolation":"STEP",
					"output":12
				},
				{
					"input":8,
					"interpolation":"STEP",
					"output":13
				},
				{
					"input":8,
					"interpolation":"STEP",
					"output":14
				},
				{
					"input":8,
					"interpolation":"STEP",
					"output":15
				},
				{
					"input":8,
					"interpolation":"STEP",
					"output":16
				},
				{
					"input":8,
					"interpolation":"STEP",
					"output":17
				},
				{
					"input":8,
					"interpolation":"STEP",
					"output":18
				},
				{
					"input":19,
					"interpolation":"LINEAR",
					"output":20
				},
				{
					"input":8,
					"interpolation":"STEP",
					"output":21
				},
				{
					"input":8,
					"interpolation":"STEP",
					"output":22
				},
				{
					"input":8,
					"interpolation":"STEP",
					"output":23
				},
				{
					"input":8,
					"interpolation":"STEP",
					"output":24
				}
			]
		},
		{
			"channels":[
				{
					"sampler":0,
					"target":{
						"node":6,
						"path":"translation"
					}
				},
				{
					"sampler":1,
					"target":{
						"node":6,
						"path":"rotation"
					}
				},
				{
					"sampler":2,
					"target":{
						"node":6,
						"path":"scale"
					}
				}
			],
			"name":"PlayerAction",
			"samplers":[
				{
					"input":25,
					"interpolation":"LINEAR",
					"output":26
				},
				{
					"input":25,
					"interpolation":"LINEAR",
					"output":27
				},
				{
					"input":25,
					"interpolation":"LINEAR",
					"output":28
				}
			]
		},
		{
			"channels":[
				{
					"sampler":0,
					"target":{
						"node":8,
						"path":"translation"
					}
				},
				{
					"sampler":1,
					"target":{
						"node":8,
						"path":"rotation"
					}
				},
				{
					"sampler":2,
					"target":{
						"node":8,
						"path":"scale"
					}
				}
			],
			"name":"PointAction",
			"samplers":[
				{
					"input":29,
					"interpolation":"LINEAR",
					"output":30
				},
				{
					"input":29,
					"interpolation":"LINEAR",
					"output":31
				},
				{
					"input":29,
					"interpolation":"LINEAR",
					"output":32
				}
			]
		},
		{
			"channels":[
				{
					"sampler":0,
					"target":{
						"node":9,
						"path":"translation"
					}
				},
				{
					"sampler":1,
					"target":{
						"node":9,
						"path":"rotation"
					}
				},
				{
					"sampler":2,
					"target":{
						"node":9,
						"path":"scale"
					}
				}
			],
			"name":"Side RefAction",
			"samplers":[
				{
					"input":25,
					"interpolation":"LINEAR",
					"output":33
				},
				{
					"input":25,
					"interpolation":"LINEAR",
					"output":34
				},
				{
					"input":25,
					"interpolation":"LINEAR",
					"output":35
				}
			]
		},
		{
			"channels":[
				{
					"sampler":0,
					"target":{
						"node":10,
						"path":"translation"
					}
				},
				{
					"sampler":1,
					"target":{
						"node":10,
						"path":"rotation"
					}
				},
				{
					"sampler":2,
					"target":{
						"node":10,
						"path":"scale"
					}
				}
			],
			"name":"Front RefAction",
			"samplers":[
				{
					"input":25,
					"interpolation":"LINEAR",
					"output":36
				},
				{
					"input":25,
					"interpolation":"LINEAR",
					"output":37
				},
				{
					"input":25,
					"interpolation":"LINEAR",
					"output":38
				}
			]
		}
	],
	"materials":[
		{
			"doubleSided":true,
			"name":"Material.001",
			"pbrMetallicRoughness":{
				"baseColorTexture":{
					"index":0
				},
				"metallicFactor":0,
				"roughnessFactor":0.5
			}
		}
	],
	"meshes":[
		{
			"name":"Sphere",
			"primitives":[
				{
					"attributes":{
						"COLOR_0":0,
						"POSITION":1,
						"NORMAL":2,
						"TEXCOORD_0":3,
						"JOINTS_0":4,
						"WEIGHTS_0":5
					},
					"indices":6,
					"material":0
				}
			]
		}
	],
	"textures":[
		{
			"sampler":0,
			"source":0
		}
	],
	"images":[
		{
			"mimeType":"image/png",
			"name":"face_template",
			"uri":"face_template.png"
		}
	],
	"skins":[
		{
			"inverseBindMatrices":7,
			"joints":[
				0,
				4,
				3,
				2,
				1,
				5
			],
			"name":"Armature"
		}
	],
	"accessors":[
		{
			"bufferView":0,
			"componentType":5123,
			"count":19660,
			"normalized":true,
			"type":"VEC4"
		},
		{
			"bufferView":1,
			"componentType":5126,
			"count":19660,
			"max":[
				2.091545343399048,
				4.2239089012146,
				6.376301288604736
			],
			"min":[
				-2.0653045177459717,
				-2.4300668239593506,
				-8.031577110290527
			],
			"type":"VEC3"
		},
		{
			"bufferView":2,
			"componentType":5126,
			"count":19660,
			"type":"VEC3"
		},
		{
			"bufferView":3,
			"componentType":5126,
			"count":19660,
			"type":"VEC2"
		},
		{
			"bufferView":4,
			"componentType":5121,
			"count":19660,
			"type":"VEC4"
		},
		{
			"bufferView":5,
			"componentType":5126,
			"count":19660,
			"type":"VEC4"
		},
		{
			"bufferView":6,
			"componentType":5123,
			"count":29034,
			"type":"SCALAR"
		},
		{
			"bufferView":7,
			"componentType":5126,
			"count":6,
			"type":"MAT4"
		},
		{
			"bufferView":8,
			"componentType":5126,
			"count":2,
			"max":[
				1.6666666666666667
			],
			"min":[
				0
			],
			"type":"SCALAR"
		},
		{
			"bufferView":9,
			"componentType":5126,
			"count":2,
			"type":"VEC3"
		},
		{
			"bufferView":10,
			"componentType":5126,
			"count":2,
			"type":"VEC4"
		},
		{
			"bufferView":11,
			"componentType":5126,
			"count":2,
			"type":"VEC3"
		},
		{
			"bufferView":12,
			"componentType":5126,
			"count":2,
			"type":"VEC3"
		},
		{
			"bufferView":13,
			"componentType":5126,
			"count":2,
			"type":"VEC4"
		},
		{
			"bufferView":14,
			"componentType":5126,
			"count":2,
			"type":"VEC3"
		},
		{
			"bufferView":15,
			"componentType":5126,
			"count":2,
			"type":"VEC3"
		},
		{
			"bufferView":16,
			"componentType":5126,
			"count":2,
			"type":"VEC4"
		},
		{
			"bufferView":17,
			"componentType":5126,
			"count":2,
			"type":"VEC3"
		},
		{
			"bufferView":18,
			"componentType":5126,
			"count":2,
			"type":"VEC3"
		},
		{
			"bufferView":19,
			"componentType":5126,
			"count":41,
			"max":[
				1.6666666666666667
			],
			"min":[
				0
			],
			"type":"SCALAR"
		},
		{
			"bufferView":20,
			"componentType":5126,
			"count":41,
			"type":"VEC4"
		},
		{
			"bufferView":21,
			"componentType":5126,
			"count":2,
			"type":"VEC3"
		},
		{
			"bufferView":22,
			"componentType":5126,
			"count":2,
			"type":"VEC3"
		},
		{
			"bufferView":23,
			"componentType":5126,
			"count":2,
			"type":"VEC4"
		},
		{
			"bufferView":24,
			"componentType":5126,
			"count":2,
			"type":"VEC3"
		},
		{
			"bufferView":25,
			"componentType":5126,
			"count":1,
			"max":[
				0
			],
			"min":[
				0
			],
			"type":"SCALAR"
		},
		{
			"bufferView":26,
			"componentType":5126,
			"count":1,
			"type":"VEC3"
		},
		{
			"bufferView":27,
			"componentType":5126,
			"count":1,
			"type":"VEC4"
		},
		{
			"bufferView":28,
			"componentType":5126,
			"count":1,
			"type":"VEC3"
		},
		{
			"bufferView":29,
			"componentType":5126,
			"count":1,
			"max":[
				0.16666666666666666
			],
			"min":[
				0.16666666666666666
			],
			"type":"SCALAR"
		},
		{
			"bufferView":30,
			"componentType":5126,
			"count":1,
			"type":"VEC3"
		},
		{
			"bufferView":31,
			"componentType":5126,
			"count":1,
			"type":"VEC4"
		},
		{
			"bufferView":32,
			"componentType":5126,
			"count":1,
			"type":"VEC3"
		},
		{
			"bufferView":33,
			"componentType":5126,
			"count":1,
			"type":"VEC3"
		},
		{
			"bufferView":34,
			"componentType":5126,
			"count":1,
			"type":"VEC4"
		},
		{
			"bufferView":35,
			"componentType":5126,
			"count":1,
			"type":"VEC3"
		},
		{
			"bufferView":36,
			"componentType":5126,
			"count":1,
			"type":"VEC3"
		},
		{
			"bufferView":37,
			"componentType":5126,
			"count":1,
			"type":"VEC4"
		},
		{
			"bufferView":38,
			"componentType":5126,
			"count":1,
			"type":"VEC3"
		}
	],
	"bufferViews":[
		{
			"buffer":0,
			"byteLength":157280,
			"byteOffset":0,
			"target":34962
		},
		{
			"buffer":0,
			"byteLength":235920,
			"byteOffset":157280,
			"target":34962
		},
		{
			"buffer":0,
			"byteLength":235920,
			"byteOffset":393200,
			"target":34962
		},
		{
			"buffer":0,
			"byteLength":157280,
			"byteOffset":629120,
			"target":34962
		},
		{
			"buffer":0,
			"byteLength":78640,
			"byteOffset":786400,
			"target":34962
		},
		{
			"buffer":0,
			"byteLength":314560,
			"byteOffset":865040,
			"target":34962
		},
		{
			"buffer":0,
			"byteLength":58068,
			"byteOffset":1179600,
			"target":34963
		},
		{
			"buffer":0,
			"byteLength":384,
			"byteOffset":1237668
		},
		{
			"buffer":0,
			"byteLength":8,
			"byteOffset":1238052
		},
		{
			"buffer":0,
			"byteLength":24,
			"byteOffset":1238060
		},
		{
			"buffer":0,
			"byteLength":32,
			"byteOffset":1238084
		},
		{
			"buffer":0,
			"byteLength":24,
			"byteOffset":1238116
		},
		{
			"buffer":0,
			"byteLength":24,
			"byteOffset":1238140
		},
		{
			"buffer":0,
			"byteLength":32,
			"byteOffset":1238164
		},
		{
			"buffer":0,
			"byteLength":24,
			"byteOffset":1238196
		},
		{
			"buffer":0,
			"byteLength":24,
			"byteOffset":1238220
		},
		{
			"buffer":0,
			"byteLength":32,
			"byteOffset":1238244
		},
		{
			"buffer":0,
			"byteLength":24,
			"byteOffset":1238276
		},
		{
			"buffer":0,
			"byteLength":24,
			"byteOffset":1238300
		},
		{
			"buffer":0,
			"byteLength":164,
			"byteOffset":1238324
		},
		{
			"buffer":0,
			"byteLength":656,
			"byteOffset":1238488
		},
		{
			"buffer":0,
			"byteLength":24,
			"byteOffset":1239144
		},
		{
			"buffer":0,
			"byteLength":24,
			"byteOffset":1239168
		},
		{
			"buffer":0,
			"byteLength":32,
			"byteOffset":1239192
		},
		{
			"buffer":0,
			"byteLength":24,
			"byteOffset":1239224
		},
		{
			"buffer":0,
			"byteLength":4,
			"byteOffset":1239248
		},
		{
			"buffer":0,
			"byteLength":12,
			"byteOffset":1239252
		},
		{
			"buffer":0,
			"byteLength":16,
			"byteOffset":1239264
		},
		{
			"buffer":0,
			"byteLength":12,
			"byteOffset":1239280
		},
		{
			"buffer":0,
			"byteLength":4,
			"byteOffset":1239292
		},
		{
			"buffer":0,
			"byteLength":12,
			"byteOffset":1239296
		},
		{
			"buffer":0,
			"byteLength":16,
			"byteOffset":1239308
		},
		{
			"buffer":0,
			"byteLength":12,
			"byteOffset":1239324
		},
		{
			"buffer":0,
			"byteLength":12,
			"byteOffset":1239336
		},
		{
			"buffer":0,
			"byteLength":16,
			"byteOffset":1239348
		},
		{
			"buffer":0,
			"byteLength":12,
			"byteOffset":1239364
		},
		{
			"buffer":0,
			"byteLength":12,
			"byteOffset":1239376
		},
		{
			"buffer":0,
			"byteLength":16,
			"byteOffset":1239388
		},
		{
			"buffer":0,
			"byteLength":12,
			"byteOffset":1239404
		}
	],
	"samplers":[
		{
			"magFilter":9729,
			"minFilter":9987
		}
	],
	"buffers":[
		{
			"byteLength":1239416,
			"uri":"model_faceless.bin"
		}
	]
}
