<svg version="1.0" xmlns="http://www.w3.org/2000/svg" viewBox="202.5 118.96 616.03 790.04">
  <path d="M449 119.6c-7.6 2.5-11.4 4.7-21.6 12.4-6.4 4.8-14.2 10.1-17.3 11.7-5 2.5-6.6 2.8-15.6 2.8-10 0-10 0-19.8-4.9-8.5-4.2-10.6-4.9-16.1-4.9-10.5-.1-16.6 5.2-16.6 14.6 0 5.7 1.7 8.2 20.1 29.4 17.2 19.7 30 34.8 38.8 45.5l6.4 7.8h205.3l10.4-12.8c13.4-16.4 28.4-34.1 38.6-45.7 13.9-15.7 16.4-19.5 16.4-24.6 0-9.2-6.1-14.4-17-14.3-5.4 0-8 .7-15.5 4.1-12.4 5.7-15.9 6.6-23.5 6.5-10.9-.2-15-2.3-35.9-18-5.2-4-11.5-7.8-14-8.7-10.3-3.5-21.5-1.1-35.7 7.7-12.3 7.6-19 9.9-28.4 9.9-10 0-15.5-1.8-28-9.2-14-8.3-24.4-11.4-31-9.3m14.3 27.8c4.1 1.7 6.1 4 8 9.1 2.7 6.9 17.7 54.1 17.7 55.4 0 .8-3.2 1.1-12.2.9l-12.2-.3-4.4-12.5c-6.8-19.1-12.5-37.1-12.9-41.1-.4-2.8.1-4.2 2.3-6.9 2.4-2.8 7.3-5.8 9.7-6 .4 0 2.2.6 4 1.4m99.7 1.1c3.2 1.6 6 6.1 6 9.4 0 1.6-14.8 46.7-17.5 53.3-.6 1.6-2.2 1.8-12.9 1.8-6.8 0-12.5-.2-12.8-.5-.4-.5 11.4-34.9 17.9-52 4.6-12.1 11.2-16.2 19.3-12M408.4 259.4c-4.1 1.8-6.4 5.2-6.4 9.6 0 4 2.9 9.3 6.1 11 1.6.9 27.7 1.1 103 .8l100.8-.3 3-2.9c3.9-3.8 4.8-8.3 2.6-13-3.3-7 3.2-6.6-106.7-6.6-81.4.1-99.9.3-102.4 1.4m-8.5 45.6c-1.7 1-27.9 29.3-38.4 41.5-31.2 36.1-55.9 74.4-82 127-33.8 68.3-55.5 133.9-70.5 213-5.3 28.1-6.5 40-6.5 66.5.1 22.6.3 26.6 2.3 35.3 4.3 19.4 12.6 39 22.9 54.5 7.1 10.7 22.2 26.5 33.2 34.7 20.3 15.3 46.1 24.8 80 29.5 14 1.9 19.8 2 166.5 2 162 0 163.7-.1 188.1-4.9 25.4-5 39.5-10.6 58-22.9 32.7-21.7 54.3-54.9 62.7-96.4 3.1-15.5 3.1-48.8 0-71.3-5.1-36.2-17.2-89.4-28.3-124-7.4-23.2-23.9-67.6-30.3-81.6-1.3-3-5.1-11.4-8.4-18.6-7.3-16.2-24.4-48.7-34-64.4-23.5-39-51-74.9-81.7-106.7L619.8 304H510.7c-66.1 0-109.8.4-110.8 1m90.7 22.6c-2.1 8.3-8.9 52.5-11.1 71.9-2.2 19.8-3 22.9-7.1 26.5-4.2 3.6-9.3 4-14.1 1-5.2-3.1-6.7-6.2-5.9-12.3.3-2.9 1.5-13.1 2.6-22.7 3.2-27.6 9.5-64.9 11.1-66 .4-.3 6.2-.5 12.9-.5 11.7 0 12.1.1 11.6 2.1m61.6 11.4c3.2 15.5 5.4 33.2 6.4 50.5.7 13.3-.1 16.6-5 19.9-5.9 3.8-16.5.6-18.5-5.7-.5-1.8-1.5-8.8-2-15.7-1.5-17.3-3.9-35.3-6.5-49.8-1.2-6.7-2-12.5-1.7-12.7.3-.3 5.9-.4 12.5-.3l12.1.3zm58.4-9.2c3.6 4.6 26.2 40.8 29.4 47.1 2.7 5.5 2.2 10.2-1.7 14.3-5 5.2-12.2 5.7-16.6 1-2.2-2.4-40.2-62.7-41.3-65.6-.4-1 2.7-1.2 13.3-1l13.8.3zM435 346.5c3.4 1.8 6 6.2 6 10.2 0 1.5-1.2 5.9-2.6 9.8-10.6 29.1-14.6 43.4-20.4 73-2.3 11.5-4.5 13.1-20.5 14.4-15.2 1.3-20.6 3.1-26.6 9.1-5.6 5.7-7.5 10.3-13.9 35.2-2.7 10.2-5.6 20-6.5 21.7-4.6 8.9-16.2 8.6-20.6-.6l-2.2-4.5 6.2-24.8c9.7-39.3 21-71.4 34.2-96.7 14.6-28.3 23.1-39.3 30.2-39.3 3.8 0 8.2 2.9 9.2 6 1.1 3.4 3.1 2.3 8.5-4.5 7.8-10 12.7-12.3 19-9M524.1 468c34.3 3.5 63.8 17.7 87.5 42.2 19.5 19.9 32.1 42.8 39.2 70.6 2.5 9.9 2.7 12.2 2.7 31.7 0 23-1.2 30.8-7.4 49.5-16 47.8-56.1 83.2-105.4 93.4-48.9 10.1-98.3-5.3-133.3-41.5-13.7-14.2-21.9-26.7-29.2-44.5-11-27-13.8-55.5-8.2-83.5 6.4-31.8 17.6-52.8 39.9-75 14.2-14.1 22.9-20.3 40.6-28.9 25.4-12.3 47.9-16.6 73.6-14m-201.9 72.2c3.1 1.1 6.8 6.4 6.8 9.6 0 4.1-8.9 25.7-11.5 27.9-5.9 5.2-16.1 1.6-18.6-6.5-1-3.4-.6-4.7 4-16.2 6.7-16.6 9.3-18.5 19.3-14.8m-56 69c2.5 1.2 4.8 6.1 4.8 10 0 1.8-2.8 14.8-6.2 28.8-5.5 23-6.4 25.8-9.1 28.2-6.4 6-18 2.3-19.3-6.2-.7-4.5 11.6-54.2 14.3-57.8 3.3-4.5 10.2-5.8 15.5-3M252 769c1 .5 2.7 3.8 4 7.7 5.1 15.8 13.3 27.7 28.6 41.5 5.1 4.6 5.8 7 3.2 10.3-3.5 4.4-7.3 3.5-16-3.9-13.2-11.3-21.9-24.2-27.9-41.5-2.4-6.9-2.4-9.2.2-12.5 2.1-2.7 4.8-3.3 7.9-1.6"></path>   <path d="M508.6 500.7c-.9 3.2-3.5 11.9-5.9 19.3s-7.2 22.6-10.7 33.7l-6.4 20.3h-44.3c-24.4 0-44.3.3-44.3.7 0 .5 1.3 1.7 2.9 2.8 2.4 1.6 38.4 28.6 59.8 44.7 2.8 2.2 5.6 4.5 6.2 5.2 1.1 1.3.9 1.8-15.3 53.2-4.7 15-8.6 27.7-8.6 28.3 0 .7 15.5-10.5 34.5-24.9l34.4-26 35.2 26c19.3 14.4 35.4 25.9 35.6 25.6.3-.3-5.4-18.1-12.7-39.6-7.2-21.4-13-40-12.8-41.2.2-1.5 4.3-5.2 12.3-11.2 6.6-4.9 21.9-16.6 34-26l22-17.1-43.6-.3-43.5-.2-5.3-16.8c-13.7-42.9-20.2-62.2-21-62.2-.5 0-1.6 2.6-2.5 5.7"></path>
</svg>
