
<svg xmlns="http://www.w3.org/2000/svg" viewBox="0 0 1024 1024" xml:space="preserve">
  <path fill="#FF8E00" d="m241.915 533.657 5.608 2.026-.692 9.023 4.753.497-1.957 3.802c2.708 2.693 10.392 1.229 6.937 8.759l5.86.36c-1.446 4.657.44 7.072 5.182 7.09.865 7.09 4.784 10.98 10.277 10.255l.243 5.404h13.667c.13 2.487.24 4.565.364 6.91l5.171.38c-.107 1.505-.569 3.114-.215 4.517.293 1.162 1.46 2.864 2.393 2.97 3.619.41 7.311.496 10.953.288 3.729-.214 7.43-.915 11.378-1.434l.305-5.168c3.672-.745 9.702 1.206 7.936-6.279 8.108 1.43 12.922-2.796 12.922-10.856 0-13.495-.037-26.99.03-40.485.014-2.813-.256-4.565-3.888-4.87-3.67-.306-9.013-.113-6.418-7.01.269-.714-2.641-2.626-4.79-4.655l5.565-3.694.831 5.292h6.419c.67-3.807.466-6.693-4.486-5.786l-.539-4.96h-4.386l-.808-7.239 5.147-4.151-7.482-4.219-2.245-4.671-3.876 4.396-1.713-.967c-.61-5.224.009-11.458-8.527-10.175l.89-5.437c-1.875-2.12-7.026.931-6.807-4.648.112-2.853-.662-5.74-1.002-8.614-.115-.974.224-2.575-.245-2.843-3.964-2.27-4.059-9.124-10.499-8.675-1.035.073-2.26-2.584-2.87-4.408-6.207-2.96-10.479-11.8-19.89-7.759l-.646-6.31h-28.852l1.199 5.244c-3.512.61-8.26.25-5.235 6.52l-5.735 2.553-.28 3.888c-4.074-.09-5.136 1.386-5.06 5.684.375 21.056.17 42.124.17 63.492h-5.915v-37.43h-9.563c1.903-5.491-.67-7.188-6.149-6.11v-22.859l5.367-.531v-12.64c-3.222-.023-6.889.362-6.729-4.573.108-3.31.02-6.625.02-9.878-6.739-1.299-6.992-1.091-7.003 5.454-.005 3-.008 5.998-.01 9.432 0 .435.069.361.069.361h-7.91v-24.163h-9.253v-11.896c5.633 1.243 6.621-1.55 6.126-5.804-.33-2.834.24-5.083 3.49-6.227.964-.339 1.539-2.539 1.777-3.972.23-1.383-.205-2.876-.393-4.774 7.121.915 7.27-3.712 7.16-8.709l4.694-.627c0-3.385.495-6.936-.278-10.185-.26-1.088-3.76-1.403-6.472-2.301 0 2.385-.1 3.682.02 4.958.298 3.212-.56 4.888-4.324 4.884-4.41-.005-6.172 3.023-4.989 8.064l-4.516 1.341c-.817 2.54 1.419 6.539-3.395 7.41-.44.08-.734 2.036-.76 3.128-.091 3.801-.035 7.605-.035 11.677h-5.76V342.21H178c0 5.67.278 11.451-.096 17.19-.263 4.031 1.873 4.794 4.975 4.935 2.177.099 3.056-1.28 3.113-4.797.035-2.164-.043-4.332.02-6.495.08-2.81-1.118-6.433 4.147-5.877.822.086 2.346-1.983 2.72-3.291.478-1.665.117-3.572.117-5.707l6.003-.314c0-3.33.17-6.708-.053-10.06-.183-2.762.744-4.103 3.476-4.894 1.692-.49 3.053-2.124 4.135-3.86 3.1-1.627 8.2-.387 7.01-7.364-.23-1.35 5.504-4.596 8.873-5.457 4.038-1.031 8.844.922 11.158-4.783.465-1.147 3.859-1.107 6.155-1.676l.395-3.75h22.177c.613-2.069 1.211-4.035 4.567-3.37 1.065.212 2.895-3.434 4.375-5.315l-1-1.134 5.21-.304c1.016-1.928.796-5.98 5.097-4.145.145.062.576-.333.755-.595 2.176-3.176 4.329-6.366 6.825-10.05 2.914 0 6.558 0 10.593.22.392.223.476.294.476.294-.77 2.4-.495 5.355-4.124 6.066-.756.148-1.084 2.479-1.694 4.019-2.915.254-6.776-.415-9.27 1.126-2.004 1.238-2.353 5.154-3.537 8.137 7.583-.035 15.131 1.644 19.92-5.236l6.582-10.917c4.612.43 5.54 8.835 12.295 5.87-1.826 2.46-2.634 4.527-4.122 5.322-2.153 1.15-4.778 1.783-7.238 1.902-3.22.156-5.909.268-4.952 4.669-3.085 1.103-8.448-1.368-7.216 4.224l-12.634 7.283-.862-.963c-.123.788-.343 1.574-.353 2.363-.097 7.151-.59 6.623 7.685 6.5 4.918-.074 9.813-1.667 15.616-1.906-1.086.975-2.279 2.873-3.24 2.762-3.823-.441-4.485 1.697-4.969 4.654-.454 2.776-.637 2.747-8.98 4.274l4.896 2.019-.151 1.22c-5.553 0-11.138.347-16.645-.157-2.445-.224-4.732-2.165-7.09-3.326-1.032-.507-2.06-1.438-3.097-1.449-9.999-.11-20-.151-29.998-.003-2.325.034-4.637.861-7.054 2.208l4.178 1.338c-4.538 1.644-8.37 3.564-5.651 9.211 4.074.478 8.132.942 8.578-4.914h21.737c-1.199 6.779 2.566 7.193 7.716 7.372 2.373.083 4.642 3.137 8.149 5.72 3.189 0 8.275-.14 13.35.044 4.346.157 5.768-1.489 3.839-5.947 4.432.445 10.365 3.7 9.223-5.283 1.308.386 2.772.405 3.003.949 2.802 6.578 8.874 4.302 13.744 5.23.321.061.732-.113.987.029 1.369.762 2.701 1.59 4.046 2.395-1.353.86-2.675 2.405-4.063 2.466-6.168.271-12.354.115-18.533.119-5.89.003-5.89.006-6.8 5.983-3.414-.919-6.362 2.437-10.408.283-2.354-1.254-3.86 1.727-4.177 4.641-.393 3.597 2.083 4.642 4.355 4.647 12.17.024 24.34-.404 36.511-.506 3.201-.027 5.427-.183 5.347-4.412-.069-3.647 3.305-2.909 5.3-2.511 4.21.839 6.436-.393 9.94-3.398 3.813-3.27 5.915-5.755 6.341-10.598.1-1.144 3.641-1.985 5.581-2.956l-.306-5.786c4.75.805 4.75.805 6.505-5.48 3.22-.877 6.11-1.045 8.215-2.418 1.925-1.255 3-3.813 4.416-5.751 3.813 8.252-1.493 16.315-1.31 25.263l-5.698-.724-1.63 7.46c-2.906.302-6.216 1.11-5.337 5.38.3 1.454 2.295 3.768 3.221 3.636 1.977-.283 3.762-1.909 5.21-3.752 3.535-.911 7.75-.666 7.585-6.34 4.898-1.059 5.177-4.677 4.973-8.7-.03-.592.845-1.429 1.5-1.824 2.882-1.743 6.678-2.74 8.52-5.215 1.692-2.274 1.715-6.086 1.766-9.233.185-11.397.073-22.8.073-34.004l6.012-3.494c0 7.737.392 15.484-.106 23.173-.543 8.396-1.832 16.75-3.033 25.089-.127.88-1.852 1.53-2.126 1.741.933 1.125 3.063 2.581 2.987 3.91-.08 1.376-2.27 2.659-3.594 3.924-.93.889-1.974 1.658-2.934 2.519-1.27 1.139-2.619 2.218-3.725 3.503-.97 1.127-2.181 2.435-2.35 3.781-.359 2.865-.11 5.806-.11 8.785-3.742.564-8.743 5.33-8.926 9.51-.202 4.638-.576 8.685-6.064 8.057l1.07 15.462c-6.882-1.154-7.435 3.27-7.244 8.144l-5.09-.986.411 6.082-4.912.234c-.14 2.08-.28 4.17-.417 6.235-6.236 1.306-6.236 1.306-5.65 9.371l-5.04-1.866v7.506c-2.41 2.303-2.107 3.955 2.142 6.016.825.4 1.094 1.849 1.763 2.7.542.691 1.3 1.212 1.074 1.008l-3.56 5.82-2.36.32v4.66l8.01-.409-2.947 6.238-5.264 1.378 7.271 4.872c-2.565 0-4.719 0-7.093-.285-.21-1.277.07-2.366-.25-3.236-.448-1.218-1.108-2.768-2.116-3.241-.81-.38-3.088.412-3.261 1.068-.291 1.099.216 2.867 1.046 3.69 1.084 1.075 2.809 1.505 4.258 2.212 1.453 5.838 2.414 6.033 9.47 1.925-.475 3.645-.475 3.645-8.569 5.655l5.349 4.278c-1.969 2.358-4.314 5.217-6.731 8.012-.391.452-1.077.706-1.674.915-5.685 1.988-5.772 2.653-.557 7.207 3.035-1.846 2.3-8.904 8.713-5.985l.304 4.37c6.168.67 6.25.33 4.686-5.455-.485-1.793 1.088-4.046 1.059-6.08-.043-3.077 1.238-3.995 4.118-4.275.775-.076 1.371-2.492 1.96-3.873.738-1.733 1.383-3.505 2.423-6.168 1.146 1.725 1.466 1.982 1.464 2.236-.115 22.066-.38 44.132-.35 66.198.019 13.214.686 26.428.649 39.642-.012 4.152-.201 7.379 5.355 6.23l-.68 9.557 4.126.836c.001 4.351-1.29 9.503 5.9 8.703l-1.188 5.634 6.167.78.276 6.185 5.51.502.621 5.486 5.458.552v6.508h-6.696c1.697-5.201-.904-6.291-5.329-5.79-1.966.223-3.978.038-6.465.038v-11.675h-5.76c0 8.419-.227 16.895.245 25.333.07 1.256 3.42 2.33 5.596 3.05 1.365 2.23-1.109 6.958 4.657 6.554v4.894c7.646 2.21 7.646 2.21 7.249 8.75H392l-1.715 7.937h19.913l-1.619 7.003h16.437l-.604 7.118c1.605.296 3.608.965 5.617.986 10.473.107 20.95-.074 31.42.112 4.073.073 6.775-.614 5.445-5.422l17.768-4.53.596-5.919 5.577-.372.34-5.952h14.152v-14.526l5.397-.601.489-6.511 5.59-.442v-8.371h5.138c-.363 3.81 1.907 8.106-3.768 10.343-1.184.467-1.118 4.107-1.737 6.749-4.087-.005-4.675 2.839-4.515 6.771.282 6.898.079 13.816.079 20.595-4.027-1.17-5.985.888-5.538 6.231.102 1.22-1.743 2.602-3.14 4.528-.335 2.734-1.262 6.493-1.019 10.175.1 1.506 2.734 2.844 4.214 4.258l1.478-.849-.595 7.048-7.272-1.197.925-4.83-7.537-.478v-28.003l-7.23 1.579c-1.102 1.698 2.35 6.34-3.298 5.308-.382-.07-1.362.853-1.363 1.315-.013 6.61-5.022 3.762-7.94 3.905-4.065.2-7.814-.228-5.728 5.784.303.876.042 1.948.042 2.944l-49.313 1.74v-9.655c-8.106 0-16.24 0-24.53-.79-.155-2.385-.155-3.978-.155-5.654h-5.202l.4 6.379 4.988-.846v7.97l6.703.463c-1.245 4.372.333 6.554 4.923 6.868 1.09.074 2.049 2.075 3.691 3.871h3.453c.376 1.568.491 3.744.989 3.835 2.657.487 5.41.453 8.27.606l-.658 3.066c2.672 1.575 5.14 3.067 7.654 4.474.382.214 1.193.261 1.449.015 4.189-4.04 7.453-.723 10.648 1.163-.752.924-1.692 1.793-2.215 2.866-.2.413.647 1.89.856 1.857 1.42-.223 2.798-.72 4.834-1.318.75 1.038-.636 5.579 4.016 3.123l.436 7.783c2.223-1.976 3.547-3.049 4.745-4.247 1.223-1.223 2.323-2.57 4.408-4.904l.882 6.49 4.45.25.512-4.746h5.317l.823 4.555h4.276c.21-1.503.431-3.07.829-5.9l7.814 6.86 3.897-6.273 1.56.753.482 4.502h4.64c.09-1.55.174-2.971.279-4.748 5.305 0 10.316-.171 15.308.058 3.514.16 4.981-1.139 4.544-4.614-.646-5.14 1.865-6.683 6.711-6.516 7.815.269 15.646.072 23.404.072 2.518-5.848 2.518-5.848 6.659-6.326l.417-4.21.792.677 5.135-4.99-.745-.956h6.375v8.636h44.953V701H585.3c-9.664 0-19.328.006-28.992-.003-2.76-.003-5.116-.05-3.477 4.077.734 1.847.124 4.229.124 6.68l6.796.45v4.175c-14.04 4.77-28.806-3.294-43.286 3.438l4.847 2.555c-2.735 1.497-4.62 3.292-6.66 3.491-4.816.47-9.74-.156-14.55.344-2.327.242-5.937-.282-6.137 4.028-.2 4.301 2.684 3.768 5.35 3.766 6.583-.004 13.167-.001 20.346-.001l.732 3.763h5.198l.729-4.49 4.496.546.374 3.696 4.94 1.597 3.951-3.387 2.233 3.726c-.849.237-1.51.238-1.903.565-1.19.987-2.509 1.965-3.252 3.25-.214.37 1.719 2.669 2.034 2.54 1.395-.573 2.738-1.544 3.77-2.671 2.675-2.921 5.08-6.204 9.24-4.98l-4.127 6.04c1.066.598 2.627 1.962 3.107 1.651 1.508-.974 2.608-2.577 4.62-4.752.283.241 1.3.994 2.177 1.884.92.93 1.707 1.993 2.552 2.998.818-.858 2.327-1.749 2.29-2.568-.056-1.185-1.174-2.359-1.963-3.448-.23-.317-.884-.327-.664-1.5 3.17.776 6.34 1.552 10.01 2.278.625.08.749.21.84.747.74 2.1 1.515 3.79 2.29 5.482.885-1.64 1.79-3.269 2.634-4.928.127-.25-.028-.642.14-1.155.32-.315.446-.442.572-.57 1.371.137 2.742.274 4.575.387.583.108.704.24.79.8-.035 1.682-.035 2.937-.035 4.254h5.347a318.87 318.87 0 0 0-1.33-5.791c-.028.038-.08.115-.08.115 3.06-.03 6.12-.06 9.768.067.714.284.84.41.72.859-.246 1.762-.246 3.203-.246 4.572 4.9 1.814 5.175-1.675 5.847-4.61l-.103.11c1.846.807 4.713.14 4.685 3.713-.004.524 2.98 1.072 4.693 1.646.679-4.977.679-4.977-4.543-5.97l-.07-1.465c2.596 0 5.194.048 7.789-.015 2.284-.055 6.025 1.93 4.732-3.43-.188-.78 1.488-2.01 2.7-3.535 1.096 2.15 1.89 4.368 3.262 6.14.759.98 3.002 2.023 3.66 1.603 1.148-.734 1.59-2.575 2.706-4.66l8.212 1.504c-2.482 3.09-4.62 5.751-6.9 9.223-.923.61-2.097-.013-2.418.285-1.276 1.18-2.284 2.649-3.392 4.011l3.074 2.221c.943-1.43 2-2.803 2.774-4.32.326-.64.052-1.586.05-2.393 1.187.454 2.406 1.363 3.553 1.28 3.906-.282 7.784-1.194 11.679-1.23 1.09-.011 2.258 2.114 3.283 3.349.753.906 1.331 1.958 1.987 2.946 1.176-.82 3.407-1.73 3.346-2.445-.28-3.287.777-3.806 3.691-2.888.553.174 2.497-1.675 2.356-2.05-2.126-5.678 2.01-4.453 4.9-4.592.824-.04 1.65-.006 1.904-.006l18.686-19.052-.312-4.368 5.603.46c-.13-4.712 2.06-7.008 7.18-5.829l-.831-5.762c5.272-1.059 10.805-.438 14.126-6.322l4.512-.263.668-4.697h8.203l1.944-8.077h6.196l.612-5.632c1.999-.397 4.014-.797 6.395-1.322.365-.125.292-.194.292-.194l-1.309 5.966c-6.668-.983-3.989 4.269-4.878 7.807l-7.532 1.818-.333 5.987c-3.156.513-7.405.353-5.7 6.125-5.3-.047-7.306 2.541-5.905 7.715l-8.166 2.163c-.164 2.986.657 6.41-3.978 7.202-.823.14-1.109 3.424-1.527 4.86l-3.14-1.289c.239.918.464 1.84.722 2.753.323 1.137.673 2.267 1.119 3.759l-5.26.345c.1 1.634.187 3.025.277 4.475-4.781 1.176-4.77 1.764 1.699 9.783l1.608-8.276 7.159-.722.275.579-3.83 2.11 6.506 5.332.389-6.714.842.71 7.572-7.663 2.148 5.099h5.092c.134-1.692.26-3.285.394-4.88 2.535 1.116 4.406 2.084 6.059-1.844 1.32-3.14 4.21-6.162 7.181-7.922 3.225-1.91 3.649-4.266 3.58-7.276-.056-2.504-.384-5.123 3.836-3.744l.298-5.594 8.2-.987-2.086-5.226c3.63.735 5.48-.676 4.86-4.728-.112-.731.715-2.2 1.349-2.356 4.792-1.181 5.416-4.987 6.738-8.182l5.613-5.85c3.815.808 4.442-2.065 4.278-6.264-.265-6.791-.071-13.6-.071-20.228-4.283-2.733-10.697 2.355-13.734-3.794-13.998 0-28.357.006-42.715-.003-4.77-.004-5.348 2.16-2.725 5.887l-4.354.235-1.83 8.865c-4.046-.659-4.91 1.506-4.699 4.956.15 2.45.027 5.015-3.872 4.338-.453-.078-1.316 2.396-2.044 3.655-.793 1.372-1.573 3.806-2.492 3.87-3.922.273-4.35 2.32-3.289 5.881a305.21 305.21 0 0 1-4.852.315c-.389.001-.315.07-.315.07-.03-.832.099-1.708-.118-2.488-1.119-4.02-.148-6.33 4.377-5.634 1.974-2.287-1.96-7.698 4.67-7.1v-17.62l6.104-.465c-2.04-4.954.005-6.25 4.583-5.821 3.13.294 7.039 1.318 7.445-3.993.028-.372 1.607-.949 2.418-.88 3.48.29 5.057-1.147 4.351-5.058h45.585c1.044 7.802 1.044 7.802 7.817 8.192 1.41 6.132 1.41 6.132 7.423 5.968l.432 5.37c1.348.149 2.695.298 4.59.611.673.29.8.416.927.543-1.417 2.636-.576 3.83 2.33 4.429 3.17.651 4.849 2.694 3.695 6.523l-4.394.633-.505 3.891-6.513-1.542-.444 5.883c-5.77.178-6.256 4.303-5.742 9.362-4.783-.748-5.548 2.055-5.128 5.926l-6.295.42 1.773 4.646c-4.948.57-5.716 4.091-5.426 8.362.046.669-.42 1.941-.761 1.982-6.838.81-3.511 6.08-4.206 9.534-.106.53.333 1.17.635 2.125-4.56-.697-6.599 1.346-5.72 6.083h-5.838c1.445 5.948-3.623 5.353-7.068 7.065l2.315 3.607-5.71.567c-.16.18-.542.408-.56.663-.532 7.156-.526 7.156-7.554 7.157-3.5 0-7.03.296-10.49-.074-4.48-.479-6.479 1.28-6.154 6.074-7.88 0-15.524.166-23.157-.07-3.77-.117-5.015 1.228-4.824 4.913.304 5.84-.187 11.756.603 17.51.206 1.502 3.906 2.524 6.487 3.365 1.68 2.18 1.074 3.75-2.331 3.25-4.814-.706-6.223 1.439-5.763 5.941.321 3.134-.168 6.35.162 9.482.165 1.571 1.226 4.251 2.094 4.34 3.995.405 3.65 3.532 3.699 5.747.231 10.636.104 21.281.104 32.277l-4.906.473v8.366l-5.511.964.478 6.228-6.993.4c.539 3.825 1.996 8.16-4.61 8.19l1.29 8.339-4.68.526v13.59l-5.98.312c.364 4.658-.053 8.56-6.786 5.28l-.726 5.66-10.204 6.963.996 11.817h35.906c.459 9.28 7.629 2.943 10.993 6.002 0 1.067-.656 3.356.204 4.586.713 1.021 3.21.797 5.513 1.24 1.228 1.372-2.51 7.766 4.687 5.183l.548 5.804 5.551.576.452 5.587 4.55.3.544 7.32 4.765-.398.682 14.698 6.04.409v12.53l5.97.519v7.945c2.624-.347 4.875 7.222 7.499-1.999.415 3.055.605 4.21.724 5.373.242 2.359-1.204 5.516 2.952 5.992.34.039.904.78.857 1.128-.731 5.485 2.906 5.753 7.29 5.39l-.427 8.61 5.685-.79c1.456 7.448 1.456 7.448 8.638 6.763 0-11.898.223-23.86-.295-35.79-.062-1.424-4.168-2.672-6.399-4.002L754 980.892v-20.757c0-2.333.003-4.666 0-6.999-.01-6.774-.01-6.774-6.92-7.55 0-1.567-.263-3.237.046-4.793 1.498-7.545 1.52-7.576-6.681-7.928-.358-2.973-.818-5.992-1.062-9.029-.29-3.625.868-7.63-4.916-8.665-.986-.177-1.613-6.07-1.238-9.181.45-3.746-.271-6.373-3.257-8.64-.951-.722-1.716-2.144-1.887-3.343-.302-2.123-.084-4.32-.085-6.487-.004-7.354-.004-7.354-7.621-7.664v-18.63l5.493-.27v10.966h17.547c1.626 11.354 10.798 3.162 15.474 7.064-1.13 5.484 2.09 6.59 7.128 6.073 3.106-.319 6.272-.059 9.769-.059l.361 7.971 26.197 1.248c.213.319.524.57.538.838.42 7.943.415 7.943 8.265 7.943h18.981l-.772 7.928h8.585v7.922h26.28l.939 7.222h8.012c-.478 1.829-.667 3.3-1.277 4.57-.298.62-1.38.865-2.107 1.28-2.746-5.782-7.746-1.84-11.587-2.419-6.84-1.031-13.85-.923-21.218-1.314 1.276-6.603-1.975-7.758-7.263-7.273-4.472.41-9.062-.305-13.496.274-1.876.245-4.737 2.35-4.962 3.923-.494 3.451 2.281 3.012 4.784 2.494 1.106-.23 2.393.415 3.7 1.777-2.963.325-5.93.606-8.884.995-1.178.155-2.897.206-3.328.926-.442.738.231 2.31.708 3.389.663 1.498 1.598 2.877 2.672 4.754l-4.366 3.274c-.414-.94-.657-2.35-1.132-2.434-6.216-1.09-4.341-6.152-4.447-9.709-.157-5.317-7.182-11.504-12.106-9.318-3.797 1.686-7.119.867-10.745.472-1.18-.128-2.787.614-3.631 1.499-.592.62-.676 2.486-.162 3.202.616.856 2.111 1.08 3.865 1.864-.65.757-1.398 1.784-2.306 2.64-.872.822-1.91 1.467-2.877 2.19.941.935 1.822 1.946 2.853 2.768.4.32 1.14.213 2.575.428-1.328.82-2.106 1.672-2.573 1.527-3.73-1.16-2.817 1.058-2.442 3.094.385 2.09 1.167 4.33.76 6.294-.719 3.46.357 4.682 5.172 3.859l-6.525 4.176 3.753 3.107-3.38-.21c-.684 2.126 4.725 4.222-.99 5.806l5.7 4.29-4.88 2.99c1.283.794 2.712 1.427 3.807 2.426 1.04.95 1.732 2.284 1.863 2.465-2.326 2.035-4.009 3.507-5.848 5.568-.28.72-.404.849-.529.978-3.042-.588-3.28 1.212-3.366 3.596-.392 10.703-.926 21.4-1.43 32.555-3.593-.388-6.053.989-5.53 5.74-15.355.415-30.71.415-46.533.017-1.584-1.44-2.666-3.342-3.816-3.384-7.47-.272-14.956-.14-22.436-.14.263-11.958.535-23.195.738-34.434.048-2.673-.52-4.798-4.064-4.69-5.821.175-11.669.33-17.471-.039-5.141-.327-8.393.81-7.49 7.085h-15.318c-11.622 0-11.542 0-11.655 11.632-.039 4.05-.154 7.745 7.044 5.952V1025h-63.531c1.514-.568 3.496-1.136 5.48-1.703l-.015-.822-5.811-.901-.108-1.201 5.738-.582v-8.452h7.351l-1.066-7.032 6.84-.564v-8.435l5.977-.997v-14.674c2.154.155 3.897.28 5.813.42V970.2c6.894 1.543 6.192-3.08 5.098-7.87l5.972-.582v-8.63l5.017.311.382-7.043c4.782.051 7.585-1.703 5.108-7.343h6.417l.595-5.836 5.181-.377c1.884-4.83-2.716-7.297-3.448-10.281-1.559-6.353-5.102-5.645-9.66-5.51l-.564-5.866H614.9l1.07-7.18c-3.673 0-7.263.189-10.822-.053-3.59-.245-7.152-.917-10.778-1.41l.399-4.531c4.205 0 8.533.015 12.861-.003 6.805-.03 7.102-.294 7.704-6.756.21-2.254.377-4.512.522-6.266l6.114-3.231-2.66-3.232 4.489-3.073-5-5.454c.857-2.647 2.13-5.73 6.707-5.369.397.032 1.273-2.39 1.437-3.733.416-3.403.116-6.948.924-10.235.818-3.327 1.959-6.992 4.137-9.475 3.857-4.395 1.11-9.256 2.025-13.778.063-.31-1.315-1.219-2.095-1.326-1.556-.214-3.16-.063-4.893-.063.268-4.914 8.679-1.128 6.667-7.602l-5.332-1.017-.094-1.091 5.63-1.908c.186-3.414-.565-5.801-4.92-4.987-1.002.187-2.119-.243-3.737-.548-.68-.289-.805-.417-.93-.545 2.27-2.387 2.41-4.162-1.484-4.274-4.662-.135-9.332.015-13.997-.052-2.815-.04-5.691-.328-4.069 3.878l-12.244 1.471-.23-1.166 3.999-1.11c.144-3.115-1.466-4.38-4.684-4.067-4.123.401-8.256.714-12.384 1.065l-.204-1.48c1.091-.194 2.415-.07 3.217-.658 1.118-.82 2.357-2.095 2.544-3.326.107-.706-1.781-2.469-2.747-2.451-4.055.075-8.101.641-12.235.112 1.4-.1 3.057.233 4.133-.41 1.27-.757 2.038-2.357 3.023-3.593-1.345-.884-2.625-2.369-4.048-2.52-2.576-.276-5.238.244-7.3-.773-1.413-.984-2.716-2.516-4.264-2.826-2.404-.48-4.985.021-7.471-.165-3.2-.24-6.219.597-9.425-2.314-2.08-1.889-6.987-.666-10.122-.813l.903-6.093H523.36c3.02-6.999 1.835-7.822-9.097-6.893l-.446-6.573h-10.874c1.496-5.572 1.179-5.779-9.745-6.55.242-4.713-2.443-6.205-6.828-5.752-3.021.313-5.667.221-5.594-4.187.015-.901-2.631-2.195-4.24-2.675-1.543-.461-3.332-.1-5.74-.1l4.308-2.766c-9.406-6.938-18.448-.103-26.997-2.495l8.482-1.023v-4.63h-9.351c.39-6.847-4.406-6.256-8.86-6.19 1.393-4.022.649-6.21-4.019-5.98-2.461.122-4.96-.485-7.944-.82l1.818-4.012-6.615-2.68 2.105-4.648-12.386-1.047 2.617-3.63c-1.469-.698-2.875-1.673-4.422-2.015-1.58-.349-3.296-.077-4.99-.077.851-5.44.851-5.44-9.43-6.309 1.374-3.497 1.314-6.015-3.609-5.882-1.132.031-3.465-2.5-3.293-3.524.667-3.973-.7-7.079-3.03-10.322-4.69 2.342-5.566-.18-5.21-4.362.17-1.985-.037-4 .045-5.996.142-3.454.268-6.819-2.931-6.035-2.147-2.246-3.403-3.416-4.467-4.741-.472-.588-.73-1.478-.78-2.25-.154-2.32-.672-3.747-3.612-3.785-1.09-.014-2.84-2.234-3.08-3.652-.484-2.88-.144-5.897-.144-8.355l-10.175-2.62c2.847-2.716 4.909-5.429 1.246-7.2-1.886-.913-5.17.435-7.526 1.45-.869.375-1.127 2.712-1.235 4.185a79.978 79.978 0 0 0-.168 9.078c.11 2.725.555 5.436.962 9.153l5.504 1.036-.074.747-8.389.903.012 1.408 3.566 1.568c-3.81 4.053-.765 4.917 1.76 5.431l3.095 5.849-1.76 3.612c-6.564 3.3-8.44-3.244-12.334-5.502-.29-.168-.444-.927-.35-1.341 1.103-4.893-.692-6.877-5.855-5.485l-.526-5.013h-8.728v-6.737c-4.018-.626-7.257-.677-9.023 3.417-.272.63-1.467 1.188-2.253 1.213-3.811.125-7.628.057-11.984.057l1.07-5.148c3.81 0 7.304.517 10.507-.223 1.54-.357 2.533-3.085 4.582-5.817l-24.754 1.408-.31-6.98h-7.6v8.525l-6.261.28c0-3.382.002-6.497 0-9.611-.004-6.415-.005-6.415-6.669-6.431-.5-.001-.999-.007-1.912-.01-.414 0-.34.069-.34.069.956-3.362 2.63-6.729 2.61-10.085-.013-2.176-2.502-4.336-3.881-6.504l-5.64 5.397h-6.124c.187-2.427.334-4.712.55-6.99.143-1.5-.505-3.165 2.43-3.256 1.004-.03 1.892-3.799 3.083-6.407 3.707.309 7.384-.483 5.527-6.842-2.929-1.247-8.188-.86-6.53-7.318h-8.896v-16.096H245c0-2.856.088-5.48-.025-8.094-.11-2.516 1.228-5.706-2.963-6.57-.524-.108-.96-1.986-.964-3.045-.02-5.989.106-11.979.546-18.292.364-.324.321-.3.321-.3m441.58 212.566c1.078.247 2.577 1.05 3.145.62 1.069-.806 2.123-2.297 2.187-3.554.05-.972-1.422-2.021-2.218-3.036-1.191.953-2.728 1.698-3.464 2.924-.577.962-.164 2.518-.994 3.824-1.644.483-3.867.508-4.736 1.605-.61.77.622 3.002 1.086 4.789 3.706-1.39 6.672-2.388 4.994-7.172m-16.504 202.79c-2.833-1.763-5.376-3.552-9.276-2.21-3.052 1.05-7.562-1.13-7.966 4.562-.026.369-.965.79-1.547.983-5.108 1.699-2.73 5.985-3.163 9.245-.405 3.048 1.723 3.24 4.058 3.642.809.139 1.237 2.265 1.916 3.44.765 1.324 1.842 3.804 2.395 3.7 3.78-.704 8.377.301 10.622-4.349.986-2.042 2.042-4.168 3.544-5.821 4.792-5.275 4.828-6.71-.277-11.188-.224-.196.204-1.134-.306-2.005M279.634 625.062l5.366-1.75V603.17c-6.993-.273-6.099-.099-7.304 6.07-.85 4.354 5.564 10.992-3.386 13.219-.087.021-.119.265-.199.461l1.578 4.555c1.535-.6 2.881-1.126 3.945-2.412m405.04 104.022-2.57 5.836c-2.822-.016-6.17.015-4.216 6.429l9.175-5.22 3.744 3.83c.727-1.109 2.298-2.922 2.051-3.218-2.275-2.725-4.864-5.188-8.184-7.657m10.338-9.516.799 4.283c-1.984.111-3.75.21-5.592.315-.946 6.027 3.073 4.66 5.182 4.74 1.968-2.25 3.534-3.832 4.842-5.604 1.054-1.428 2.17-3.015 2.493-4.68.13-.667-1.963-2.596-2.741-2.44-1.742.35-3.294 1.646-4.983 3.386M238.47 348.887c3.695-1.236 4.962-3.994 3.368-7.258-.527-1.08-3.584-1.707-5.116-1.265-1.2.347-2.76 2.871-2.49 4.045.349 1.522 2.355 2.664 4.238 4.478m20.977.018c1.507-1.2 4.07-2.263 4.247-3.635.206-1.598-1.297-4.072-2.784-4.994-.922-.572-4.084.585-4.68 1.758-1.348 2.652-1.1 5.56 3.217 6.87m90.812 272.103-3.225 3.704c.936.605 2.134 1.919 2.761 1.687 2.145-.791 4.088-2.126 6.108-3.253-.597-.56-1.106-1.346-1.815-1.625-.935-.368-2.027-.34-3.83-.513M563.072 748.72c1.314 4.038 2.848 4.412 6.827 1.663-2.233-5.345-3.418-5.782-6.827-1.663M334.946 433.479c-2.884-1.493-4.444.058-4.725 2.617-.094.85 1.829 2.727 2.856 2.747 3.46.065 3.25-2.332 1.869-5.364M621.09 740.638c-.814 2.059-2.502 4.499 1.25 5.211 1.053.2 2.384-1.064 3.588-1.657-1.424-1.364-2.847-2.729-4.838-3.554m-6.934 10.995c1.54.11 3.08.218 4.954.35l-.422-4.95c-2.972.133-6.588-1.04-4.532 4.6m-7.9-4.534c-.827-.03-1.794-.347-2.45-.026-1.033.507-2.262 1.29-2.62 2.25-.218.586.917 2.316 1.665 2.471 1.103.23 2.71-.153 3.521-.903.63-.582.374-2.124-.116-3.792m69.827-4.588-3.43-1.638-1.977 4.586 1.956 1.454c1.317-1.275 2.635-2.55 3.45-4.402m-10.499 9.475c1.44-.538 2.936-.976 4.257-1.723.192-.109-.198-2.208-.762-2.484-1.053-.517-3.34-.796-3.51-.428-.63 1.352-.601 3.009.015 4.635m-84.852-3.725-4.376-2.648v6.306c2.303-.12 5.22 1.285 4.376-3.658z"/>
  <path fill="#FF8E00" d="M481.45 1025c-.438-.48-.223-1.234-.444-1.395-2.622-1.923-7.385-3.568-7.574-5.65-.498-5.485-4.636-7.537-7.357-10.957-.336-.423.208-1.545.348-2.369-4.89-1.507-6.797-3.775-6.895-9l-4.48 2.066c-1.69-3.375-2.77-7.381-5.278-10.038-2.714-2.874-6.757-4.496-10.236-6.64-.259-.159-.78 0-.942-.19-3.103-3.634-6.025-7.436-9.296-10.908-2.233-2.37-5.096-4.14-7.39-6.462-1.589-1.609-2.604-3.768-4.028-5.56-1.605-2.019-3.22-4.08-5.126-5.796-2.043-1.84-4.523-3.192-6.602-4.999-.517-.45-.225-1.83-.305-2.783l-1.286 1.012-8.795-8.74 1.034-1.319-4.36-.488c1.885-8.103-5.968-7.62-9.489-11.026 2.224-3.957 1.49-4.767-5.53-5.49l1.895-5.025c-7.866.614-7.973-5.265-8.598-10.53l-4.884 3.55c1.353-3.426 2.568-6.059-1.78-7.981-.692-.306-1.135-3.39-.618-3.786 1.353-1.035 3.3-1.294 5.358-1.978.365 3.847-.6 7.094 4.31 8.068 1.377.273 2.333 5.577 7.209 4.295-3.218 5.893.202 6.405 4.632 6.172-.743 4.652 1.046 6.93 6.044 5.902-.358 3.978.229 6.317 4.88 6.4 1.733.032 4.878 3.84 4.817 5.848-.182 5.951 3.957 4.524 7.039 5.007-.201 5.223.618 5.694 7.096 3.907l-.996 5.4 5.68 1.085-.48 3.802 6.157 5.672-.591.914h4.907c.236 3.696-.068 7.215 4.774 8.32 1.316.3 1.662 3.76 3.134 4.672 4.692 2.907 6.529 8.09 11.971 11.741 2.11-.309 4.31.975 3.65 5.386-.693 4.632 3.08 3.659 5.78 4.15l-.872 4.403c1.631.201 3.074.38 4.79.59l.534 5.605 3.935.18 5.935 6.453c-.934 1.87.22 3.375 2.872 5.244 3.11 2.19 5.33 5.61 8.101 8.329.928.91 2.419 1.219 3.543 1.968.873.581 1.576 1.419 2.356 2.556-2.699.413-5.399.413-8.549.413zm522.967 0c-.91-4.092.65-5.918 4.927-4.755-.112 1.295-.228 2.63-.344 4.36-1.389.395-2.778.395-4.583.395zM618.366 126.245c.398 7.786.398 15.428.398 23.752 2.208 0 4.09.4 5.656-.131 1.172-.398 2.72-1.97 2.759-3.066.321-9.283-.112-18.613.621-27.854.386-4.858-1.764-6.408-5.377-7.305.198-3.733.505-7.296.51-10.859 0-1.187-.424-2.79-1.254-3.49-3.477-2.928-8.256-4.916-10.509-8.527-2.36-3.78-9.26-4.037-8.03-10.562h9.396l.865 4.701h5.131c-1.735 5.19 1.506 5.284 3.334 5.207l10.79 11.882c-.88 4.092 2.681 4.466 7.544 3.97-.33 3.342-.388 6.427-.985 9.404-.977 4.872.039 6.36 5.785 6.42 0 9.652-.004 19.321.002 28.991.002 3.646-.047 7.22-4.97 7.73-.589.06-1.654.71-1.615.87 1.067 4.319-3.463 5.882-4.46 9.158-.225.742-.812 2.024-1.127 1.993-5.42-.535-4.391 2.654-4.3 6.235.108 4.206-4.924 9.056-8.966 10.352-1.057.34-2.487 1.973-2.423 2.924.254 3.798-1.588 4.812-4.941 5.06-1.478.11-2.874 1.321-4.24 1.999-1.079-6.479-7.084-1.373-10.737-3.838-.176-2.604-2.135-3.201-4.915-4.78-8.961-5.092-17.958-1.611-26.802-2.313-12.543-.995-25.18-.79-37.772-1.205-2.77-.09-5.54-.532-8.28-.988-3.16-.527-5.206 1.295-5.094 3.822.065 1.462 2.792 2.858 4.416 4.165.422.34 1.205.231 1.904 1.279-1.597.253-3.193.718-4.792.725-13 .06-26-.028-38.998.12-1.469.017-2.885 1.34-4.397 1.84-1.517.5-3.116.773-4.694 1.064-1.741.322-4.42-.064-5.084.93-2.284 3.42-4.722 2.206-7.45 1.197-.727-.27-1.64-.04-2.886-.04-.73 3.083-.63 7.154-6.035 6.268-.76-.125-2.204 3.927-3.655 6.654-4.676 0-10.164-.09-15.647.04-2.498.06-4.434.945-4.163 4.17.053.639-1.436 1.356-2.12 2.121-.995 1.116-1.912 2.304-2.843 3.477-.085.106-.029.325-.038.491-6.395-.772-7.105 5.397-10.302 8.507-1.045 1.018-1.724 2.408-2.595 3.61-.623.86-1.2 2.327-1.948 2.429-4.634.632-3.44 3.88-3.254 7.115l-7.081 2.011-2.858 30.787-5.21 3.837c-.133-4.226-.407-7.79-.308-11.345.091-3.3-.091-6.091-4.398-5.95-.313-6.544-.56-13.087-1.017-19.616-.063-.908-1.201-2.522-1.768-2.49-4.787.264-4.091-3.346-4.048-5.93.075-4.401.718-8.792 1.122-13.188l1.406-.284 2.111 6.03 7.213.622v-46.808l3.919-1.104.296-6.426h5.663l.481-6.412c1.467-.363 3.449-.254 4.316-1.184 2.366-2.538 4.262-5.513 7.156-9.41h9.044l.334-5.936 6.55-.296c.152-1.68.31-3.426.462-5.174 4.814-2.707 14.786 3.388 14.806-8.535h35.324c-.096 4.3 1.795 6.41 6.653 5.948 5.016-.478 10.112-.106 15.564-.106.012 4.561 2.752 5.731 5.365 5.231l6.976 5.808 1.148-.83c0 2.47.002 4.94 0 7.41-.004 2.65-.565 5.51 3.69 5.585.733.013 1.91 2.096 2.05 3.319.38 3.335 3.038 3.19 4.931 2.96.924-.112 2.333-2.67 2.183-3.967-.44-3.81.39-8.294-4.263-10.584-.81-.398-.972-2.005-1.568-2.971-.793-1.285-1.717-2.487-2.585-3.725l-1.162.464-2.28-11.958 1.445-.97c.907 7.188 6.652 3.48 10.24 5.714-.05 4.588 3.082 7.543 7.214 9.278 1.206.506 3.219-.91 4.378-1.288l7.925 2.433 2.567-9.046c-4.595 1.527-7.039 1.401-6.928-2.8.017-.623-1.857-2.02-2.283-1.822-4.846 2.25-4.545-1.027-4.553-4.044-.004-1.495 0-2.99 0-4.251-3.28-3.326-11.954 3.616-11.022-6.802-3.57.274-5.357-1.004-5.06-4.79.28-3.583-2.617-4.28-5.338-4.169-3.908.16-7.798.768-11.998 1.217l-.988-5.317h-22.248v-6.786h73.497l.307 4.557h9.461c-.17 6.67 4.963 3.22 8.123 4.564l.537 4.365 5.567.422c.103 1.891.2 3.65.305 5.605l5.128.308-.399.76c1.506 1.043 3.052 2.035 4.498 3.155.646.5 1.074 1.274 1.629 1.9 1.22 1.376 2.59 2.643 3.654 4.129 1.224 1.71 2.184 3.608 3.514 5.856l4.564.201.519 5.875c1.528 0 3.18.44 4.363-.117 1.342-.631 2.867-2.018 3.168-3.337.22-.962-1.364-3.332-2.232-3.378-4.589-.24-4.927-2.96-4.581-6.5.177-1.816.416-3.774-.073-5.467-.531-1.837-1.55-3.796-2.937-5.066-2.359-2.158-6.785-3.384-7.43-5.785-1.052-3.91-3.332-4.202-6.361-4.62l-.364-4.464-5.665-.885-.295-4.394-5.669.338c1.487-7.059-7.186-1.762-8.347-7.761l35.913 1.71.42 6.43 4.13.473.99 4.66 5.4.305.514 5.172.692-.578 4.144 5.067-.814.958 3.583.364c2.482 2.17-1.051 7.753 5.566 7.124m-196.845 44.757c-4.896-.099-1.014 4.456-3.668 6.128-1.17-1.044-2.51-2.24-4.421-3.943-.185 3.264-.63 5.482-.322 7.59.216 1.476 1.505 3.982 2.234 3.954 1.581-.061 3.084-1.508 4.669-2.287 2.027-.996 4.033-2.133 6.179-2.76 1.832-.535 4.513.409 3.104-3.31-.294-.775 1.067-2.27 1.821-3.323.844-1.179 2.517-2.182 2.603-3.352.07-.954-1.665-2.882-2.602-2.882-1.649-.002-3.345 1.044-4.934 1.828-1.326.653-2.527 1.56-4.663 2.357m18.53-.107c-.06 2.78.11 5.14 3.974 5.189 2.641.033 4.742-.483 4.801-3.27.034-1.576-.904-4.078-2.08-4.58-2.176-.927-5.344-2.217-6.696 2.661z"/>
  <path fill="#FF8E00" d="m699.943 68.078 1.64 3.672c8.034.583 8.034.583 8.803 8.089l4.467.32.295 6.702 5.148.231c-.443 3.427-1.012 6.713-1.251 10.023-.197 2.729-.741 5.818 3.541 6.292.57.063.879 1.882 1.432 2.815 1.247 2.1 2.604 4.134 3.846 6.237.476.806 1.026 1.706 1.089 2.596.417 5.92.672 11.854 1.06 17.777.296 4.53-2.094 6.81-6.094 8.29-1.157.429-1.968 2.212-2.583 3.54-.4.862-.371 2.07-.159 3.04.388 1.768 1.054 3.475 1.604 5.207 2.327-.792 4.715-1.444 6.955-2.431 1.198-.528 2.194-1.578 3.183-2.497a25.264 25.264 0 0 0 2.67-2.915c.311-.396.179-1.414.466-1.513 4.96-1.705 3.93-5.845 3.938-9.534.02-10.52.007-21.038.007-31.787h6.243v44.678c-2.297.525-6.773-1.251-6.375 4.715.435 6.508-.013 6.5 6.583 6.389 4.346-.073 8.695-.014 13.292-.014v7c-5.567 0-11.025.086-16.479-.035-2.807-.061-4.294.632-4.351 3.863-.056 3.168.678 5.042 4.166 5.206 1.655.078 3.29.57 4.935.875l.287 1.816c-2.248.759-4.647 1.24-6.696 2.36-1.741.952-3.078 2.642-4.594 4.006 1.62 1.3 3.118 3.463 4.89 3.718 3.552.512 7.26-.166 10.892-.03 1.081.04 2.122 1.157 3.181 1.78-.989.652-1.973 1.854-2.968 1.863-6.062.059-12.035.4-17.32 3.774-.811.518-1.64 1.867-1.545 2.73.117 1.065 1.035 2.2 1.899 2.981 1.041.944 3.268 1.375 3.457 2.33 1.003 5.064 4.254 3.988 7.552 3.238 2.828-.644 5.445-.85 5.13 3.535h13.488l.613 4.742 5.151.395 1.104 3.853h5.721c.54 4.806 2.76 7.786 7.575 9.294 1.473.461 2.046 3.8 3.344 6.466 2.264.06 6.075 1.956 6.819-3.58 1.244-9.255.31-10.945-5.411-11.324l-6.247-14.64c1.5-.076 3.226-.164 4.953-.25l-.709.968c1.754 1.838 3.602 3.598 5.217 5.552.66.8 1.228 2.059 1.13 3.038-.415 4.13 1.869 4.525 5.188 4.559 3.69.037 4.062-1.97 3.902-4.794a45.457 45.457 0 0 1-.002-4.996c.216-4.038.302-7.9-5.798-6.174l-.42-4.867-5.64-.54-.486-1.337 6.838-2.92.926 5.976 5.245-.47.525 5.664 4.295.607v45.625c-1.862.428-5.015.245-5.938 1.59-1.198 1.748-.622 4.712-.83 7.416h-6.575v16.349l-8.115-.36c0-5.92-.359-11.867.108-17.75.406-5.117.364-5.549-5.004-5.118-.823.066-1.656.009-2.923.009V236.18c-5.179-1.464-11.045-1.648-14.707-4.582-3.482-2.79-6.412-2.327-9.802-2.549-1.969 7.462-1.969 7.462 4.249 8.525v5.109l5.868.569.254 4.897 5.085 2.413c-5.305.766-5.493 4.07-5.193 7.798.134 1.656-.225 3.38.094 4.983.313 1.576 1.201 3.037 1.837 4.549 2.293-1.061 5.879-.41 6.042-4.323.124-2.986.024-5.982.024-9.314l6.07-.303c-.602 3.707-1.563 7.686-1.786 11.707-.139 2.49.836 5.043 1.326 7.565.09.467.382.924.366 1.378-.207 5.971-.217 5.971 5.885 6.873v19.838c-7.041 1.53-7.337 2.065-6.858 9.924.336 5.507 4.817 2.979 7.472 4.028l1.6 15.619h7.519c1.36 3.958-2.238 11.399 7.034 8.815V345c-6.044 0-12.026.229-17.98-.078-4.213-.217-6.484.902-5.528 5.884-3.36.378-8.793-2.167-6.934 5.238-5.196-1.46-6.196 1.268-6.176 5.202.05 9.728-.104 19.458.058 29.184.108 6.467.75 12.923.888 19.39.061 2.916-.62 5.84-.792 8.771-.17 2.886-.634 5.33 3.583 6.767 2.953 1.007 4.932 4.959 7.25 7.677.589.692.945 2.481 1.183 2.44 6.348-1.075 5.022 9.01 12.372 7.81 8.202-1.338 16.764-.51 25.17-.544 3.695-.015 5.02-1.902 4.6-3.996 3.616-3.455 7.197-5.821 9.159-9.144 1.187-2.011 1.437-3.839 4.2-4.066.522-.043 1.21-1.837 1.28-2.86.183-2.654-.016-5.331.08-7.994.291-8.096.861-16.189.914-24.285.04-6.25-.534-12.503-.836-18.754l-1.305.477c-1.26-2.093-2.52-4.186-3.63-6.848.278-.694.406-.82.533-.947l5.101 1.051.4 6.416 5.562.398v60.692h-7.344l-.68 4.849c-3.823-.175-6.93.79-5.69 5.954-3.864.698-9.574-1.272-7.998 6.316-1.399 0-2.372.104-3.316-.019-3.812-.495-4.823 1.265-4.792 4.89.147 17.424.066 34.849.066 52.37l6.772.683v29.719h-6.167c-1.043-5.007-3.842-7.642-9.408-6.43-5.927 1.292-5.494-1.627-4.992-6.231 2.963-.314 6.119-.752 9.289-.947 2.225-.136 4.323.145 4.566-3.11.206-2.764-.599-4.733-3.391-4.81-3.32-.093-3.716-1.836-3.7-4.514.069-11.057.073-22.114-.04-33.17-.018-1.716-.77-3.424-1.215-5.267l-5.443-.302-.477-6.65-4.227-.398c.151-1.16.407-2.227.407-3.295.002-2.76-.73-4.915-4.2-4.526-3.279.367-3.906-1.53-3.817-4.304.067-2.076.901-4.98-3.283-3.905-.87.223-2.486-.998-3.214-1.964-2.095-2.782-3.745-5.91-5.93-8.609-.755-.932-2.592-.955-3.897-1.484-.983-.398-1.908-.94-2.498-2.346l5.844-.69.106-1.471c-3.964.278-5.855-2.744-8.44-4.325-6.243-3.818-4.53-8.909-4.576-13.773-.173-18.158-.046-36.32-.092-54.48-.008-2.922-.298-5.818 3.851-6.007.272-.013.677-.307.768-.56 1.547-4.32 4.664-6.962 8.704-8.965 1.484-.735 2.672-2.54 3.443-4.124.979-2.013 1.925-4.328 1.809-6.453-.05-.92-2.73-1.851-4.333-2.48-1.122-.44-2.442-.374-3.6-.524-.11-4.505 3.304-9.394-3.05-11.811-.522-.2-.16-2.217-.629-3.185-.62-1.28-1.601-3.3-2.524-3.355-3.513-.208-3.337-2.369-3.495-4.823-.08-1.22-.951-3.4-1.526-3.421-5.95-.214-4.254-4.492-4.388-7.795-.046-1.154-.007-2.31-.007-4.086-4.924.974-5.15-1.99-5.053-5.554.1-3.673.45-7.577-.641-10.948-.575-1.777-3.992-2.633-7.306-4.61 0-3.967.03-9.739-.028-15.51-.01-1.078-.1-2.92-.624-3.11-5.429-1.976-4.296-6.555-4.298-10.559 0-3.478-.597-6.188-5.05-6.071 0-2.772-.056-5.258.016-7.74.07-2.411.217-4.51-3.324-4.656-.635-.027-1.488-3.377-1.613-5.235-.22-3.257.052-6.551-4.907-6.182l-.303-5.462c-3.237-.693-8.441.556-6.716-6.318-6.486.488-5.032-4.187-5.296-8.013l-5.08.737c-.955-2.29-1.308-5.403-3.01-6.604-1.875-1.322-4.987-1.145-7.565-1.173-10.505-.112-21.012-.024-31.518-.09-1.405-.008-3.442-1.182-4.09-.599-1.905 1.715-3.259 4.043-5.59 7.144h-26.708v-4.15c5.577-3.967 10.02-8.18 12.225-14.698l2.726 5.554c-.719.529-2.296 1.385-3.44 2.638-.714.784-1.253 2.303-.984 3.237.236.816 1.709 1.738 2.639 1.742.73.003 1.906-1.217 2.118-2.082.645-2.64 1.668-3.697 4.347-2.14.46.268 1.863-.173 2.147-.675 1.13-1.99 1.99-4.135 3.362-7.121.907-.553 5.138.13 2.974-4.449-.246-.52.725-2.323 1.32-2.425 5.7-.97 3.337-4.872 3.356-8.164.022-3.787-1.432-7.995 2.51-11.096.705-.554.411-2.524.387-3.837-.307-16.258-.625-32.517-1.044-48.772-.027-1.031-.822-2.103-1.431-3.045-1.103-1.704-2.334-3.324-3.289-5.076l-9.027-9.989v-6.713h5.004l-.702.827 8.229 6.428c-.796 4.247 1.587 6.591 7.798 5.391l-2.068 4.97 6.778 1.85c.652 3.019 1.06 6.747 2.374 10.122.553 1.42 3.02 2.095 5.39 3.6 0 12.39.081 25.862-.152 39.328-.019 1.097-2.105 2.96-3.367 3.083-3.633.355-4.205 2.807-4.418 5.462-.238 2.98.04 5.997-.08 8.992-.17 4.256 2.656 4.117 5.35 3.486 2.504-.586 6.658-8.26 6.661-10.965.001-1.26.498-3.198 1.38-3.66 3.43-1.792 3.522-1.617 2.61-5.61 4.163.506 6.615-.83 6.162-5.56-.086-.899 1.578-1.967 2.434-2.957.807 1.038 2.233 2.037 2.3 3.12.174 2.834-.245 5.705-.436 8.69l-4.052.312c-1.022 2.382.9 7.869-5.171 5.238-.542 8.968-.542 8.968 6.71 8.217-1.498-6.247 3.64-5.144 7.193-5.989l-1.99-4.906 4.866-1.123c0-11.055 1.36-22.43-.45-33.275-1.338-8.021-1.229-15.774-1.241-23.667-.008-5.066.46-10.132.69-15.2.103-2.269.074-4.242-3.108-4.642-.78-.098-1.258-2.604-1.875-4.4 0-.396-.068-.323-.068-.323m74.344 217.95c-.33 3.882-.809 7.765-.786 11.645.003.45 2.804 1.234 4.29 1.195.936-.024 2.605-1.271 2.628-2.01.114-3.767-.2-7.548-.368-11.4-2.404.267-3.657.407-5.764.57zM256.944 264h10.29l.965 5.91h-11.027l-.33 5.164-6.33-.757-.912 6.48c-5.11 1.173-12.542-2.9-13.938 5.833-3.35-.23-6.263-.574-9.178-.602-8.117-.08-8.065-.018-9.547 7.83-.21 1.118-1.008 2.7-1.9 3.007-2.676.924-4.67 1.921-4.212 5.314.066.492-1.414 1.769-2.06 1.692-5.448-.646-4.842 3.111-4.796 6.428l-6.804 1.146v-43.194c1.656-.088 3.453.259 4.77-.38 1.271-.617 2.86-2.22 2.907-3.444.272-7.206.134-14.427.134-21.953l4.966-.846v-9.47c1.357-.06 2.446-.07 3.526-.171.797-.075 1.582-.267 2.373-.407-1.87-6.437 8.688-7.252 5.97-14.191l5.887-.642.55-5.53 4.606-.428.265-4.394 1.599.647c1.094-2.017 3.117-4.035 3.115-6.051-.005-7.462-.678-14.924-1.094-22.277 4.744-1.236 4.744-1.236 5.45-13.976 4.179-1.253 6.579-6.327 4.516-10.088-.48-.876-2.192-1.008-3.206-1.68-1.083-.718-2.012-1.67-3.008-2.52l.794-1.263 5.535-.36.318-5.387c1.477-.25 3.016-.51 4.803-.814v-6.495h13.872l.336-4.89h20.068c-.425 6.024-.425 6.024 11.798 7.137l-14.976 10.49v5.19c-3.913.382-7.843.186-11.318 1.35-1.72.575-2.604 3.653-4.28 6.239-2.586.613-6.367 1.324-10.003 2.49-1.03.331-2.141 1.91-2.326 3.06-.365 2.275-.13 4.65-.108 6.983.063 6.659.07 6.659-6.654 6.977v11.186c6.971 1.563 6.952 1.512 6.815-6.152-.027-1.545.773-3.105 1.356-5.27 5.467 2.262 6.27-3.714 9.444-5.471 6.1-3.376 1.026-8.257 4.116-12.45 1.989 0 4.914.003 7.838 0 6.256-.008 6.97-.827 6.145-7.293 3.214.177 6.882 1.214 7.283-4.039.051-.673 3.09-1.527 4.771-1.592 5.325-.204 10.665-.008 15.996-.113 1.48-.03 2.95-.568 4.438-.876 1.084 6.795.985 6.912-6.371 6.913-5.24 0-10.481.083-15.719-.026-4.007-.084-3.322 2.683-3.49 5.147-.22 3.202 1.394 3.947 4.247 3.917 9.499-.1 18.999-.039 28.499-.022.645.001 1.29.147 3.127.37-1.175 1.576-1.728 3.144-2.723 3.51-4.234 1.56-8.522 3.393-12.937 3.94-5.421.672-11 .379-16.49.093-4.124-.214-6.573.734-5.651 5.581-1.408.347-3.506.373-3.695.987-1.842 5.986-6.934 5.058-10.747 4.28-5.232-1.066-6.721 3.2-9.303 5.384-3.124 2.64-5.119 6.617-7.17 9.425-4.372 1.593-9.33 2.268-12.735 4.93-4.14 3.238-6.68 8.042-12.209 10.315-3.127 1.286-4.637 6.224-7.212 9.23-2.015 2.352-4.547 4.263-6.753 6.281l1.546 3.354c-1.969 1.922-6.338 2.386-4.7 6.658.74 1.931 1.927 4.795 3.359 5.095 2.066.432 5.453.267 5.633-3.563.007-.153.073-.408.168-.438 5.19-1.65 6.324-8.01 11.647-10.6l.303-4.955c3.015 0 6.123.379 9.1-.08 5.982-.922 11.346-7.565 12.39-15.44l6.819 3.095 2.802-6.2c3.848-.69 8.252-.062 9.985-4.94.21-.591 1.248-1.075 1.99-1.264 7.683-1.958 15.315-4.08 23.444-3.205 1.605.172 3.405-1.47 5.115-2.275l-.427-1.392h5.261c-.018 3.355 2.533 7.662-4.074 8.175-.84.065-1.496 2.534-2.505 4.38-3.515-.402-6.133 1.043-5.054 6.102-3.808.21-7.702-.631-9.483 3.895-.296.751-3.052.535-4.332.004l-7.637-2.504c-.245 5.91-4.389 5.482-7.645 5.63-2.677.123-3.801.966-5.105 3.318-1.061 1.916-3.922 4.209-5.796 4.054-6.967-.577-5.33 5.198-6.96 8.486-.378.76.025 1.907.101 3.59 4.842-1.977 10.949 3.047 15.035-2.937 2.348-1.639 4.603-4.424 7.065-4.62 2.925-.232 6.129 2.01 6.213-3.03 4.647 0 8.955.44 13.11-.165 2.487-.362 4.734-2.362 7.076-3.409l5.43-3.55.63 1.07-5.462 6.425c-1.347.302-5.395-1.476-4.81 3.743.03.27-1.945 1.168-2.922 1.077-3.501-.326-5.073 1.074-4.478 5.074-3.488 0-6.686.237-9.834-.056-4.547-.424-7.353.925-7.661 5.893-.078 1.266-.608 2.503-.788 3.202-3.331.346-6.46.487-9.498 1.083-1.116.219-2.877 1.505-2.886 2.32-.062 5.629-4.019 4.597-7.344 4.535-5.028-.092-10.053-.342-15.08-.512-2.64-.09-4.732.474-4.982 3.72-.237 3.08 0 5.752 3.978 5.792 6.165.063 12.331.02 18.987.023m24.036-124.424c-.825-.524-1.631-1.46-2.479-1.5-3.624-.168-7.26-.071-11.896-.071.434 2.634.373 6.69 1.267 6.913 3.691.92 7.693.933 11.528.621.665-.053 1.071-3.284 1.58-5.963zm543.942 483.367v8.136l-4.937-.964v9.852h-8.944v20.021h-6.617c-.42.001-.346.07-.346.07-.026-8.173-.47-16.373.065-24.51.37-5.617-2.604-5.952-6.93-5.585l-.376-6.399h-12.839l.937-6.312h-10.6l-.557-6.944H727.17l-.333 5.541h-15.063l.434 1.655c-1.878.832-3.747 2.347-5.634 2.368-5.747.067-11.51-.712-17.248-.544-1.513.045-2.96 2.323-4.439 3.575l.589 1.097c-2.818 0-5.663.248-8.447-.057-4.453-.486-6.574.838-4.913 5.857l-7.948.376-.321 6.696h-19.42l-.782 5.128h-28.622c-7.626 0-7.626 0-8.348 7.483-10.88.005-21.758.005-32.991.005l1.773-6.33c3.523-.2 7.707 1.67 9.301-4.025.38-1.357 4.076-1.786 7.06-2.963l-3.432-1.813-.067-1.052 9.371-.48c-.375-6.27 4.631-2.606 7.236-3.636 2.325-.919 5.992.971 6.394-3.616.026-.295 2.41-.646 3.654-.526 4.172.405 7.087-.405 5.958-6.047 2.123 0 3.923-.11 5.704.024 3.377.255 6.154.105 6.643-4.382.11-1.009 2.435-2.331 3.873-2.523 2.947-.394 5.99-.254 8.98-.083 3.403.194 5.747-.53 4.753-4.917h7.372l-.337-1.613c2.158-.835 4.266-2.182 6.485-2.398 4.389-.426 9.411 1.275 11.29-5.025.207-.694 2.58-.886 3.98-1.053 3.403-.406 6.83-.616 10.234-1.013.697-.081 1.918-.638 1.918-.976-.003-5.23 4.438-3.553 6.674-3.642 3.25-.129 6.37 1.317 7.783-3.318.242-.792 3.246-.988 4.985-1.03 5.343-.13 10.69-.05 16.037-.05 15.664-.001 31.328.02 46.991-.023 2.396-.006 4.79-.3 7.438-.478-.413 9.88 7.563 3.683 11.945 6.2l.617 3.947c6.282 2.604 9.623 7.682 13.164 13.323.846 2.006 2.169 3.953 2.43 6.033.41 3.282.089 6.652.114 9.985.038 5.13 1.87 6.876 7.199 6.918 3.07-2.797-.571-10.443 7.467-9.89.325-.004.251-.073.251-.073zM553.747 380c2.194-.238 3.931-.476 5.674-.715 1.105 4.324 1.105 4.324 8.442 5.123l.249 5.125 4.8.846v5.973l3.657 1.498c.415 2.178.819 3.724.983 5.295.24 2.283.576 4.606.39 6.872-.348 4.227.464 7.093 6.583 5.748-.813 1.843-1.005 3.493-1.778 3.836-5.209 2.311-4.862 6.717-4.805 11.238.037 2.863 1.513 7.397-4.625 5.328-.673-.227-2.94 1.584-2.84 2.173 1.016 5.985-2.995 5.73-7.098 5.726-.21 1.468-.411 2.89-.635 4.468-.366.133-.787.373-1.232.43-.984.126-2.66-.165-2.872.278-3.824 7.994-10.625 3.038-16.037 3.66-4.265.49-8.631.098-12.952.098l.39-1.408c-1.846-.864-3.716-1.684-5.532-2.61-1.193-.608-3.349-1.47-3.293-2.048.443-4.63-2.82-4.84-5.939-5.177 1.974-8.513.171-12.467-6.003-12.937v-25.61l7.07-.339c1.85-2.201-.305-8.45 7.257-6.288l-2.86 5.402-1.258-.641c-.65 5.023-.65 5.023 4.57 6.274.04 6.185.04 6.185 8.176 6.51l-.463 1.349c1.88.84 3.728 1.768 5.656 2.479.733.27 1.656.112 2.482.033 4.094-.393 10.204 2.269 9.18-5.982 5.822-3.166 1.614-8.359 3.134-12.821l-6.021-.333-.35-5.564c-6.413.896-6.76-3.13-5.56-8.554h-24.434c-1.562 5.59-10.902 6-7.433 13.955l-7.776.565v27.48l-6.634.3c0-7.24-.42-14.224.183-21.12.288-3.292 2.52-6.415 3.21-9.843l11-12.645 4.345-.704.719-3.228c3.187-1.688 5.505-3.06 7.951-4.142 1-.442 2.28-.332 3.432-.34 4.998-.03 10.004.142 14.994-.065 3.578-.149 6.03.278 4.042 5.052h9.861z"/>
  <path fill="#FF8E00" d="M587.691 376.324c1.692 1.35 6.162-.43 4.991 4.547-.098.416 4.34 1.9 7.318 3.163v43.126c0 3.831.189 7.679-.124 11.485-.09 1.084-2.027 3.074-2.465 2.91-5.356-2.008-5.578 1.204-5.418 4.987.042.976.007 1.956-.95 2.197l-6.168 5.48 1.25 1.372c-3.516.605-7.992.21-6.539 5.925.082.322-1.13 1.434-1.658 1.38-5.845-.597-5.217 2.77-3.604 7.088-9.797-.556-18.362 1.138-24.808 9.01-9.29 0-19.486.049-29.679-.1-.74-.011-1.458-1.456-2.187-2.234l.915-1.497c-2.64-.313-5.278-.844-7.92-.866-2-.016-3.328.373-4.004-2.447-.297-1.24-3.652-1.748-6.546-2.984l.24-5.223c-7.3-.092-9.28-6.349-12.657-11.181-.942-1.347-2.642-2.164-3.424-3.534-1.628-2.267-3.507-4.399-4.82-6.835-1.712-3.178-4.146-6.566-4.235-9.917-.436-16.473-.198-32.963-.198-47.529l16.37-18.496c2.522-.83 5.667-1.195 4.712-6.02h5.578c.15 3.257.852 6.612-4.388 6.012-.662-.076-1.583 1.316-2.226 2.15-.475.615-.596 1.992-1.04 2.068-6.217 1.065-4.873 5.995-5.097 10.004-7.806 1.494-9.012 3.86-7.41 11.832.773 3.846.46 7.927.482 11.902.055 9.83-.071 19.66.116 29.486.028 1.468 1.493 4.222 2.061 4.162 6.181-.648 6.403 3.099 5.822 7l10.586 9.509c-.364 2.886 2.405 4.29 6.717 3.731-.011 5.543-.011 5.543 13.042 6.19l-.388 4.728c9.39 1.539 18.642 1.88 27.926.119 1.026-.195 2.74-.947 2.775-1.523.324-5.394 4.255-4.384 7.564-4.493 1.498-.049 3.02-.167 4.494.024 3.47.45 5.298-.943 5.415-4.689 3.364-.801 8.557.33 7.38-4.775l7.59-5.923-.912-1.365 4.598-.532.452-6.653c5.964.715 6.935-2.845 6.806-7.585-.404-14.804-.856-29.61-.928-44.417-.022-4.469-2.76-4.093-5.879-4.247-.08-1.69-.154-3.299-.07-5.525.287-.744.415-.87.542-.997zm202.484 52.386c-1.882-.57-3.473-.84-5.514-1.184 2.646-4.735 1.406-7.488-3.74-8.72-.903-.216-1.79-2.558-1.835-3.946-.198-6.15-.155-12.31-.056-18.465.047-2.886-1.329-6.543 3.287-7.48.608-6.715 9.258-7.09 10.591-13.358.15-.7 1.963-1.469 3.017-1.488 7.14-.13 14.283-.068 22.05-.068-1.285 6.161 3.211 4.843 7.038 5.146v10.93c-1.22-1.654-2.126-2.64-2.743-3.783-.693-1.284-.89-3.688-1.717-3.888-2.42-.583-5.143-.717-7.53-.136-.75.183-.813 3.188-1.004 4.06-1.499 1.56-4.053 3.457-3.774 4.072.845 1.865 2.785 3.235 4.739 4.327 1.067 8.023 8.118 2.486 11.523 4.698.496 5.214 1.664 10.467 1.194 15.57-.23 2.485-3.431 4.768-5.469 6.975-.71.769-2.82 1-2.84 1.535-.226 5.658-3.678 5.544-8.017 4.324-.14 4.857-3.052 5.64-6.974 5.21a29.31 29.31 0 0 0-6.48.005c-3.209.368-4.985-.863-5.746-4.335zM398.048 577.155c-.632 6.48 4.662 2.413 6.983 4.997v13.781h6.744l.39 7.873 5.646.373.33 6.36c1.206.302 2.515.63 3.976.998l-1.276 5.528h12.868l.557 4.914h30.73c0 1.847.05 3.292-.012 4.733-.123 2.822-1.113 4.47-4.47 4.355a307.982 307.982 0 0 0-19.991-.015c-4.566.14-7.597-.847-6.373-6.925h-15.252c1.082-5.8-1.04-8.181-6.829-7.03 1.432-6.9-2.554-7.816-8.069-7.074v-6.305c-.004-6.54-.004-6.54-7-6.902 0-3.23.004-6.505 0-9.78-.01-6.361-.972-7.05-7.307-5.256V448.992c6 .916 6.524-2.368 6.323-6.474-.173-3.535-.036-7.086-.036-11.006l3.617-.682 4.293-6.456 1.612.847c-.244.805-.233 1.918-.774 2.369-4.872 4.056-3.815 9.529-3.778 14.806.022 3.14 1.139 6.645-3.06 8.507-.752.333-.886 2.674-.846 4.075.245 8.431.709 16.856.937 25.288.374 13.858.823 27.72.865 41.582.035 11.429-.603 22.86-.685 34.29-.038 5.26.63 10.521.784 15.787.047 1.583-.556 3.185-.897 5.23zm-108.855-95.75c2.877 2.527 6.478 4.148 8.075 6.922 1.366 2.373 1.264 6.371.273 9.09-.911 2.498-3.846 4.278-5.947 6.315-1.15 1.116-2.308 2.297-3.67 3.093-.964.562-2.276.528-4.194.913-.169 1.502-.317 4.098-.818 6.624-.183.927-1.2 1.688-1.836 2.525-.384-.906-.829-1.79-1.14-2.721-.939-2.812-.999-6.584-5.86-4.26-1.218.582-2.95.087-4.761.087v-13.908c3.82.295 7.193-.397 5.37-6.085 2.402 0 4.258.291 5.966-.087 1.52-.338 4.1-1.463 4.074-2.16-.073-1.937-1.513-3.776-1.955-5.757-1.138-5.094-8.932-3.77-9.189-9.696-.02-.451-1.262-1.225-1.925-1.213-4.563.085-3.402-2.683-2.56-5.134-6.657-4.06-14.331-4.658-15.935-1.332-2.396 4.972-8.224 8.78-4.322 15.967h-5.838c0-8.697-.034-17.327.014-25.957.027-4.89 4.161-3.247 6.404-3.35 5.705-.262 11.453.142 17.164.558 1.184.086 2.455 1.209 3.365 2.16.843.882 1.045 2.899 1.9 3.15 2.575.755 3.858 2.494 5.46 4.448 3.077 3.752 7.287 6.633 10.042 10.566 1.57 2.242 1.196 5.846 1.843 9.242zm410.022 79.173-2.07 7.755c-5.598-.393-11.798-.882-18.006-1.236-2.484-.142-5.12-.451-7.428.215-1.326.382-2.131 2.565-3.889 4.886-2.162.483-7.722-2.543-8.076 4.52-3.786.983-8.91-1.64-10.233 4.76-.187.907-4.125 1.288-6.362 1.46-3.146.242-6.326.054-9.491.064-5.097.014-5.097.019-6.205 4.698-4.728 1.417-11.18-2.03-14.499 5.115-2.653.347-5.889.732-9.11 1.22-.761.115-2.058.492-2.116.892-.76 5.254-4.738 4.115-8.015 4.033-4.044-.1-4.248 2.048-2.839 5.553h-14.028c.545-5.87 5.966-4.475 9.93-5.918l.412-4.122 11.847-1.501-.434-3.68c3.957-1.542 10.25 2.646 11.708-4.906l10.514-1.69c-.847-5.491 2.4-5.98 6.838-5.8 3.905.158 7.866-.442 11.757-1.015.894-.132 2.437-1.87 2.266-2.281-1.472-3.55.728-3.596 3.12-3.598 2.666-.003 5.335.074 7.996-.04 1.044-.046 2.803-.278 2.983-.832.983-3.023 3.099-3.216 5.758-3.26 1.067-.017 2.887-1.326 3.025-2.248.503-3.365 2.472-3.708 5.279-3.665 9.493.144 18.99.105 28.88.36.395.224.488.261.488.261zm49.451-43.888c12.944-.042 25.526.125 38.107.32 1.651.026 3.322.065 4.947.325 3.34.536 5.466 2.244 5.156 5.984-7.592 1.795-97.268 2.847-111.608 1.278V515.8c7.765.391 15.373 1.049 22.983 1.081 7.589.033 15.179-.767 22.77-.814 5.76-.036 11.522.538 17.645.623z"/>
  <path fill="#FF8E00" d="M699.13 560.59c-.054-9.481-.054-9.558 9.767-9.575 25.329-.045 50.658-.048 75.987.036 2.563.008 5.123.723 7.941 1.148l.343 5.689h9.456l.82 6.112c-2.428 0-4.784.06-7.134-.026-1.122-.04-3.128-.162-3.218-.577-1.574-7.233-7.966-4.498-11.74-4.797-9.36-.743-18.85.172-28.287.397-14.428.345-28.855.713-43.285.972-3.547.064-7.1-.253-10.608.107.043.502-.05.465-.041.515zm-13.067 107.502c-.977 1.748-1.56 3.498-2.326 5.79l-5.27.234-.858 4.827c-4.366-.567-7.544.643-7.756 6.128l-22.453 1.317.725 7.372h-38.92v-7.55h27.667c-.91-6.125 1.742-8.086 7.214-7.26 4.782.722 8.715-.003 6.582-6.95 7.142 0 13.595.014 20.048-.005 5.027-.014 5.027-.033 5.482-5.687 4.652 2.902 10.326-4.101 14.523 2.717-1.422-.31-2.844-.62-4.659-.933zm138.967-45.043c.035-1.449.035-2.934.035-4.78 4.339-.105 5.333-2.575 5.015-6.485-.35-4.297-.08-8.643-.08-13.228-8.327-1.065-.683-8.254-5.102-11.445l-4.54-.24-.613-5.571-4.901-.625c3.666-6.926-5.748-5.596-6.31-10.527l-4.969-.265.648-4.15 6.675.488c.177 2.501-1.924 5.808 3.072 5.887 4.268.067 6.581-.621 6.124-5.67-.654-7.215-.95-14.482-.95-21.726 0-2.888 1.22-5.755 5.617-5.65v17.485l4.25.853v29.397l6.795.376 1.51 29.818c-4.804-.71-7.343.805-6.243 6-2.019 0-3.639 0-5.7-.024-.44-.024-.367.045-.333.082zM341.921 83.942v3.703c-1.476.2-2.909.392-4.74.638 0 2.046-.312 4.215.16 6.198.18.754 2.15 1.505 3.322 1.531 6.48.147 12.966.07 19.45.076.465 5.075-2.7 5.984-6.746 5.926-.647-.009-1.682-.072-1.888.276-3.974 6.696-10.212 2.639-14.208 3.39-5.231 4.699-10.09 8.574-14.346 13.026-3.972 4.156-8.524 7.28-12.697 11.024l-1.029-1.114v-17.852c5.651-1.527 5.651-1.527 6.03-7.476l5.417-.627.498 6.944c6.198.685 8.152-.548 8.789-5.373.35-2.658-.492-3.007-8.602-3.42l-.421-4.45 7.56-.77-.364-3.548c2.119-2.427 3.401-4.14 4.944-5.571.91-.844 2.173-1.479 3.385-1.785 1.618-.408 3.34-.407 5.288-.63.272-.048.198-.116.198-.116zM530 39h53.301l.946 7.224H485.34V39H530zM346.885 681h4.865l-.964-1.218 5.295-6.541 1.722.768c.399 3.465 1.088 6.925 1.142 10.396.156 9.98.071 19.964.044 29.946-.007 2.436-.135 4.596 3.391 4.819 1.143.072 2.753 1.82 3.12 3.098.597 2.088.215 4.435.492 6.641.424 3.371-2.38 7.805 3.43 9.592.942.29.905 3.762 1.33 5.81-1.796-.163-3.522-.32-5.248-.48-1.24-7.592-1.24-7.592-6.302-8.175-.066-1.414-.157-2.875-.195-4.337-.033-1.29-.007-2.582-.007-4.106l-5.957-.393c0-10.172-.602-20.45.183-30.621.67-8.672-.391-10.392-9.565-9.463a42.415 42.415 0 0 1-3.455.19c-.28.005-.563-.224-1.02-.422V681h7.7zm-56.016-140.695c-.216-6.53-.534-12.628-.843-18.725-.034-.663-.251-1.447.016-1.971 1.136-2.234 2.423-4.392 3.654-6.577.768 2.062 2.052 4.09 2.19 6.194.242 3.695 1.697 5.659 4.365 8.56 3.736 4.062 6.37 3.924 10.904 3.526 2.873-.253 6.003 2.412 9.992 4.208l-1.228 11.479c-4.401 0-8.284.056-12.164-.02-2.443-.048-4.672-.263-5.803-3.244-.367-.967-2.68-1.444-4.176-1.674-2.422-.374-4.904-.36-7.36-.508.032-.13.05-.266.103-.385.068-.15.166-.287.35-.863zM629.691 38.324l17.106.77.389 6.697h8.374l.835 4.217h15.508c-.16 1.207-.27 2.108-.401 3.007-.484 3.306 1.54 5.309 4.661 4.959 4.178-.47 8.387-.663 12.727-.986v5.771h-24.882c1.572-7.987-4.457-5.222-7.944-5.824-4.091-7.189-10.46-2.591-15.957-3.92v-7.832H628.99c0-2.05 0-3.637.16-5.853.287-.753.415-.88.542-1.006zM372.625 71h-10.479v-5.261c4.41-.252 8.984.08 13.183-1.02 1.924-.504 3.11-3.828 5.12-6.533h19.456c.962 12.904 11.476 3.603 16.917 8.153l.274 5.511c-7.937-.947-15.418-2.247-22.944-2.607-5.914-.283-11.886.564-17.827.983-1.095.077-2.165.507-3.7.774zm-36.626 779.083c-2.139 5.519 1.897 4.873 4.944 5.073v5.551c1.97.167 3.705.313 5.444.463-1.691 3.832.27 7.583 4.474 8.494v6.943h-5.715c-.184-3.844-.173-8.095-6.208-6.777-.204.044-.68-.864-.929-1.377-1.323-2.727-3.98-5.654-3.64-8.17.792-5.884-3.239-3.803-6.175-4.55v-11.558c-4.678.488-7.663-.875-7.519-5.817.013-.424-.352-1.141-.695-1.252-9.037-2.93-3.312-10.286-5.328-15.8h5.792c2.417 3.382-3.13 10.422 5.499 11.036-.784 5.235.968 8.223 7.034 6.426-.73 4.157-3.166 8.366 2.969 9.482.101.019.039.937.053 1.833zm286.973-357.931c1.424-2.398 2.671-4.486 4.165-6.38.624-.791 1.744-1.597 2.685-1.657 3.186-.204 6.394-.078 9.7-.078l1.915 5.795 4.563.352c0 1.515-.14 2.83.026 4.103.51 3.883-.308 6.918-4.187 8.86-1.36.68-2.15 2.497-3.199 3.794l.762 1.24c-2.54-.256-5.09-.778-7.618-.693-2.613.088-3.451-.643-4.024-3.344-.352-1.658-3.013-2.825-4.638-4.213l-1.119.752c.298-2.714.595-5.428.97-8.53zM548.904 353H513.9c0-1.06.238-2.193-.044-3.178-.946-3.308.754-3.869 3.498-3.846 7.806.066 15.612.018 23.418.016h15.553c.076 6.762.3 7.119 6.798 6.96 4.078-.1 7.135.324 5.546 5.536-3.257.49-6.588 1.709-9.602 1.167-1.71-.308-2.903-3.5-4.328-5.393l1.015-1.262h-6.851zm141.067 334.953a222.558 222.558 0 0 0-2.402 5.064l-1.415-.522c.204 5.343-2.797 7.465-7.727 7.747 2.153 7.502-4.49 2.12-6.38 4.544l.36 4.642-5.4.982c1.432 4.405-.174 6.245-4.822 5.708-.824-.095-2.714 1.526-2.602 1.984 1.244 5.073-2.728 3.517-4.414 4.906-1.753 1.331-3.568 2.589-5.237 4.018-1.138.976-2.072 2.19-2.667 3.546l-5.931 3.651c-.378-.282-1.977-.91-2.012-1.618-.075-1.505.574-4.344 1.08-4.378 4.531-.306 4.704-3.422 4.696-6.652 5.572-1.238 7.01-3.18 5.618-7.572h5.515l-.483-1.179c1.705-.943 3.523-1.733 5.08-2.878 1.224-.9 2.697-2.088 3.045-3.415.606-2.31.43-4.33 3.942-2.782 1.09.48 3.206-1.05 4.65-1.975.263-.17-.455-1.87-.9-3.531l6.056-.391.683-4.668c5.426 1.369 5.487 1.312 5.89-5.512 1.678.112 3.366.224 5.47.362.415.025.341-.044.307-.08zM482.68 47.06c.86 2.4 1.248 4.753 1.71 7.556h-50.157V50c3.978 0 7.77.146 11.544-.049 2.722-.14 6.05 1.38 7.75-2.557.246-.57 2.472-.375 3.782-.38 8.3-.024 16.6-.004 25.37.046z"/>
  <path fill="#FF8E00" d="M629.116 38.89c-14.683.187-29.173.187-43.889.187V31.49h43.58c.12 1.97.247 4.069.63 6.502.127.46 0 .586-.321.899zM305.999 767.24v26.64h-13.118c-3.845 9.388-11.631 3.133-17.832 5.661l1.334-6.541c3.658 0 7.306-.135 10.939.037 3.931.186 6.973-.291 5.41-5.753l7.157-.484v-22.963c2.527.998 5.948-2.163 6.11 3.404zM796 496.72c-.735 1.402-1.444 3.123-2.206 3.147-4.567.14-4.138 2.73-3.188 5.94h-6.81c1.079-4.76.76-5.205-4.572-6.145v-15.429H796v12.486zm-263.687 142.6c.669-2.412 1.09-4.922 4.594-4.833.75.02 2.212-1.392 2.188-2.105-.107-3.08 1.303-4.065 4.15-4.26.646-.044 1.625-1.79 1.672-2.788.167-3.535-.063-6.283 4.237-8.641 3.002-1.647 5.205-4.412 9.55-3.542-.254-5.467 3.8-3.846 6.685-4.268 1.637-6.659 6.953-2.77 10.949-4.123l-1.893 5.99c-6.856.5-14.126 5.825-14.992 11.25-1.742 0-3.55.098-5.345-.022-2.887-.193-4.348.769-4.174 3.948.052.957-.89 2.124-1.652 2.936-1.325 1.414-2.804 2.703-4.33 3.904-1.91 1.504-5.401 2.686-5.602 4.327-.435 3.553-2.42 2.824-5.044 2.76-.737-.282-.865-.408-.993-.533zm-335.36-200.292c2.115.034 4.267.034 6.732.034v10.754l-5.65.374v29.584h-6.575v-28.55l5.549-.395c0-3.62 0-7.326.025-11.47.025-.439-.044-.365-.08-.331zM438.984 87h10.694v7.428c-11.115-.489-22.259-.804-33.351-1.727-1.16-.097-2.02-3.788-2.966-5.701h25.623zM325.39 695.504c1.906-.367 3.522-.367 5.676-.367 0 9.08-.031 17.921.039 26.76.009 1.087.759 2.159.813 3.255.15 3.04.315 5.876-4.286 6.008-2.265.064-4.482 1.795-7.176 2.97l-.481-3.888 5.125-.46c0-11.39 0-22.65.29-34.278zM703 803.228v-7.717h6.305v33.234H703v-25.517zm9.15 53.063c-.126-6.39-.148-12.35-.147-18.308 0-6.028.244-6.227 6.788-5.59v27.528c-2.599-1.273-4.563-2.235-6.641-3.63zM539.697 676.659l.937-3.562c4.151.738 6.306-1.11 5.623-4.534l6.683-4.958-1.043-1.353c3.763.032 6.885-.44 6.405-5.326-.043-.43 3.775-2.08 5.313-1.601 1.675.521 2.782 2.866 5 5.403l-7.175.403-.805 4.786c-3.844-.087-7.964-.387-6.88 4.347l-7.108 5.53.744 1.138c-2.307 0-4.613 0-7.332-.164-.412-.163-.362-.11-.362-.11zM666.155 525h17.693v7c-5.633 0-11.255.005-16.877-.001-6.253-.008-6.253-.012-5.633-6.788 1.417-.07 2.876-.14 4.817-.211zm274.791 446.103h13.099l-1.193 6.792h10.761l.538 5.105c-2.896 0-5.505-.099-8.102.026-2.963.142-5.317-.097-5.256-4.048.01-.643-1.817-1.706-2.908-1.886-1.895-.312-3.879-.087-5.837-.087a230.134 230.134 0 0 0-.941-5.653c-.099-.326-.16-.25-.16-.25zM314 806.013v11.8c-6.297 2.822-5.902-2.09-6.11-5.476-.327-5.342-.087-10.72-.087-16.2H314v9.876zm170.5 36.375c3.83-.287 7.297-.287 11.092-.287l.797 3.847h9.697l-1.2 6.844h-7.423l-.888-4.825h-12.438c0-2.064 0-3.678.363-5.58zm-278.515 19.078c-1.802.157-3.323.074-4.843-.009l-.87-.897 4.642-3.581.848.772.463-5.594 5.821-.265-2.807-17.647h4.984v20.83c-3.203 2.476-5.58 4.314-8.238 6.39zm265.23-780.833c1.405 1.555 2.45 2.838 4.309 5.122h-22.916c-.96-5.454-.771-5.763 4.427-5.735 4.607.025 9.213.22 14.18.613zm238.057-32.517c.863 2.118 1.338 4.15 1.901 6.557h-19.944l-.268-5.42c6.131-.42 12.027-.822 18.31-1.137zM408.94 783.08l4.672-.905c-.23 4.69 2.803 5.39 7.077 4.742l.516 5.805 6.471.487v4.952h-9.19c1.13-6.47 1.13-6.47-9.474-7.565l-.001-7.17c-.002-.42-.07-.346-.07-.346zm491.335 162.927c3.115.015 5.765.023 8.414.07.296.005.589.224 1.15.453l.31 5.197 8.192.513c-.655 1.977-1 5.1-1.868 5.252-2.696.474-5.651.062-8.35-.62-.487-.123-.236-3.162-.367-5.655H896.93c1.346-2.433 2.113-3.819 3.344-5.21z"/>
  <path fill="#FF8E00" d="M532.887 639.887c-.127 2.472-.445 4.754-.857 7.716l-5.12.63-3.15 12.665c-4.364-1.089-4.494-1.652-3.453-13.384 5.769-.96 6.14-1.283 7.006-5.973 1.523-.59 2.98-1.156 4.72-1.972.408-.124.536.002.854.318zm-213.266 96.628c.282 6.63.282 12.89.282 19.106-4.306 1.113-6.203-.05-5.963-4.492.265-4.912.06-9.85.06-14.987 2.109 0 3.724 0 5.621.373zM734 79.11v13.378h-5.774V73.293H734v5.818zM330.96 217.633c.03-1.936.03-3.426.03-5.828 6.074 2.728 7.569-2.646 10.805-5.532v9.298c-4.537-.13-5.432 2.786-4.71 7.059h-8.557c.915-1.735 1.658-3.143 2.431-4.997zm208.663 458.944c.139 1.921.301 3.87.532 6.628h-19.81l-.434-4.792c6.566-.384 12.9-.755 19.509-1.44.277-.314.227-.368.203-.396zM381.95 432.755c-5.606.122-5.361 6.403-9.335 9.252 0-2.173.496-4.182-.08-4.56-3.863-2.54-.397-3.04.945-4.29 1.485-1.382 3.312-2.729 4.073-4.488 1.485-3.43 2.33-7.137 3.722-11.64 1.323-.544 3.128-.4 2.692 2.95-.538 4.132-1.31 8.233-2.017 12.776zM246.079 814.14c5.753-.793 11.447-1.122 17.207-1.454v6.036h-17.01a89.694 89.694 0 0 1-.197-4.582zm-1.082 7.865c-1.02 1.309-1.969 2.751-3.07 2.878-2.953.34-5.982-.05-8.96.156-4.439.31-5.323-1.958-4.75-6.038 4.716 0 9.235-.157 13.727.116 1.063.065 2.038 1.576 3.053 2.888zM766.15 166h10.576v6c-3.657 0-7.268-.203-10.845.052-4.426.315-5.616-1.629-4.534-5.857 1.415-.064 2.87-.13 4.803-.195zM587.116 376.89c-1.522-.914-2.916-1.946-4.167-3.13-3.045-2.883-6.079-5.783-9.005-8.785-1.525-1.564-2.814-3.36-4.767-5.728l4.721-.251c1.094 1.81 1.704 3.85 3.072 4.811 1.482 1.04 3.67 1.075 4.28 1.228l5.991 7.232c0 .443 0 1.965.225 3.772.098.411-.03.538-.35.851zM530.323 866h9.83l.454 5.674H525.06l.51-5.674h4.753zM234.247 161.177c.378 5.231.378 10.328.378 15.624H229c0-3.83.203-7.487-.055-11.111-.272-3.812 1.267-5.232 5.302-4.513zm414.678 375.768c-1.115 1.944-1.944 5.25-3.403 5.556-3.414.717-7.191.318-10.686-.345-1.02-.193-1.58-2.8-2.787-5.144l16.513.001c.436.001.363-.068.363-.068zM808.368 346h9.42v6.862c-3.88-.304-7.892-.249-11.68-1.144-1.104-.261-1.568-3.234-2.656-5.718h4.916zm-12.338-68.97c1.744-.739 3.465-.981 5.597-1.282v14.026l-5.62.28c0-4.345 0-8.436.023-13.023zm93.393 663.144c2.639.431 4.902.734 7.36 1.062v4.03c-.827 1.594-13.224.585-16.299-1.456 1.41-2.888 1.41-2.888 8.94-3.636zM639.178 70c-6.745-.443-.694-4.668-1.71-5.66l-7.839-3.405c7.927-2.83 8.576-2.48 9.76 3.9l5.211.298V70h-5.422zM926.63 965.42l13.642-1.076c.226 2.195.428 4.157.652 6.439.022.32.084.243.121.21-4.101-.034-8.24-.034-12.505-.034-.433-1.778-.836-3.431-1.546-5.344-.309-.26-.364-.196-.364-.196zM586.747 891c2.753.018 5.668-.377 5.026 3.167-.156.864-2.975 1.636-4.621 1.76-3.536.265-7.106.08-10.945.08-.958-3.449.2-5.454 4.631-5.035 1.803.17 3.636.028 5.91.028zm384.575 98.712 6.198.452c-.956 4.862 1.132 6.921 5.378 5.989v7.69c4.82-2.896 6.541-2.459 7.01 1.71l-8.8.554c.303-3.753.522-7.002-3.91-8.347-1.18-.358-1.608-3.187-2.706-5.594-.426-.236-1.867-1.036-3.21-2.17.097-.337.04-.284.04-.284zM783.736 173.005c.954 1.752 1.822 3.482 1.912 5.252.147 2.876-.216 5.778-.364 8.669l-1.547.111c-2.07-4.363-4.138-8.727-6.654-14.036 2.763 0 4.49 0 6.653.004zM423.127 63c-1.92-.073-3.366-.145-4.957-.225v-4.452h14.507l.455 4.677h-10.005zm132.181 816.675-13.017-1.056v-5.366H553c1.014 1.887 1.844 3.433 2.682 5.511-.119.658-.246.784-.373.91z"/>
  <path fill="#FF8E00" d="M555.882 879.108c3.942-.354 7.69-.52 11.462-.688.754 7.64-3.496 7.131-11.128 6.194-.133-1.406-.27-2.846-.657-4.613-.124-.453.003-.579.323-.893zM300.37 129.592l-13.66 1.22.524-5.62 12.803-.596c0 1.426 0 2.904.138 4.72.138.34.196.276.196.276zM490.291 58h9.472v4.796h-13.064l-.814-4.532c1.493-.1 2.722-.182 4.406-.264zm107.636 500.947v5.533H585.39v-5.467l12.177.001c.434.002.36-.067.36-.067zM794 307.965c-.08 1.9-.16 3.335-.245 4.89h-5.446V302.22l5.691-.262v6.007zM760.25 668.8c-6.997-1.74-4.86-6.948-5.18-11.565h5.602c0 3.956 0 7.712-.422 11.565zm-17.221 10.247c.034-1.436.034-2.907.034-4.635 2.927-1.044 7.28-.806 5.897-6.16h5.789v5.557c-2.831.613-7.314-1.127-7.032 4.395.01.195-2.563.522-4.364.762-.432-.025-.359.044-.324.08zm-224.06-11.62c.023 3.237.023 6.02.023 9.184h-5.024v-13.67c1.98 1.604 3.479 2.818 5 4.486zm79.066-108.374a385.668 385.668 0 0 0-.757-5.872h11.133l-.69 5.811c-2.975 0-5.924 0-9.334-.022-.46-.023-.386.046-.352.083zM509.72 358.995c-2.762.004-5.07.004-7.312.004-1.144-6.953 3.456-6.42 12.102-5.607-1.692 2.187-3.013 3.893-4.79 5.603zM241.813 533.298c.102.359.145.334.172.32-2.408.146-4.844.308-7.523.486v-14.93l1.015-.11c.174 1.141.463 2.278.5 3.424.105 3.18-.923 6.96 4.453 6.867.406-.007.853 2.335 1.383 3.943zm377.775 13.342.52 6.066h-9.406l-.93-5.741c3.302 0 6.198 0 9.488-.134.394-.135.328-.19.328-.19zM177.665 876.002c2.897.217 6.455 1.722 4.405-3.704l7.735-.691v4.024c-3.911 1.096-7.932 2.408-12.048 3.256-1.163.24-2.606-.879-3.663-2.488a95.047 95.047 0 0 1 3.571-.397zm220.252-258.001c1.637 1.522 2.819 3.043 4.855 5.664h-11.87l1.39-5.665 5.625.001zM183.644 340.477c-2.286.75-3.85.688-3.678-2.132.17-2.799-.21-5.648.148-8.412.158-1.22 1.539-2.284 2.364-3.419l1.43.812c0 4.257 0 8.515-.264 13.15zm64.273 275.513c-2.78.302-4.288-.192-3.954-3.064.205-1.762.038-3.567.038-5.636h6.607c-.786 3.063-1.51 5.878-2.691 8.7zM349.483 73.389c3.56-.288 6.766-.288 10.036-.288.567 5.16.322 5.293-10.39 4.676 0-1.339 0-2.72.354-4.388zM219.49 832.74c-4.71 1.177-2.942-2.748-4.066-4.343l10.957-2.935 1.162 5.133c-2.156 2.042-6.35-3.488-8.054 2.146zm359.323-260.114c-1.706-.14-3.082-.545-4.598-.993v-4.44h9.45l.42 4.42c-1.808.273-3.376.51-5.272 1.013zm40.873-25.9c.65-1.415 1.27-2.86 2-4.566h8.95l.519 4.79c-3.704 0-7.13 0-11.061-.155-.506-.155-.44-.099-.408-.07zm307.028 418.599c-1.624-.463-3.276-1.249-4.929-1.25-3.13-.002-4.186-1.365-3.589-4.707l8.752-1.755c0 2.658 0 4.744-.159 7.318-.159.488-.104.424-.075.394zM470.446 828.032c.424 1.803.424 3.582.424 5.665h-7.244c-1.115-5.7-1.115-5.7 6.82-5.665zM62.127 975.993c-.805-1.81-1.185-3.617-1.359-4.444l6.247-4.055-.587-1.081h4.506c-1.975 2.926-3.963 6-6.126 8.947-.365.497-1.485.438-2.681.633zM326.29 273.699c-3.876-1.72-.864-4.377-1.143-6.433-.063-.463 2.755-1.456 4.335-1.858.246-.062 1.265 1.7 1.401 2.692.238 1.722.067 3.5.067 5.343-.957.103-2.658.287-4.66.256zm247.338 304.914c-3.12.645-5.977 1.007-8.99 1.39.188-1.845.363-3.551.55-5.366 4.118-1.674 8.064-3.01 8.44 3.976zm75.404-41.563c.035-1.114.035-2.266.035-3.822l10.419-1.585-.76 5.349c-2.965 0-5.924 0-9.342-.023-.46-.024-.386.045-.352.082zm230.203 402.43c-1.52-.278-2.786-.103-3.768-.551-1.266-.577-2.304-1.652-3.44-2.512 1.245-1.139 2.34-2.573 3.788-3.315 1.017-.522 2.517-.1 4.268-.1-.177 2.519-.322 4.586-.848 6.477zM514.93 854.15c.422 2.876-.27 4.216-3.075 3.887-1.736-.204-3.516-.038-5.4-.038-.958-5.252.597-6.188 8.475-3.849zm42.14-268.1c-.25-1.908-.498-3.816-.768-5.887h7.984l-.55 5.824c-2.032 0-3.967 0-6.32-.003-.42-.003-.347.066-.347.066zM441.988 807.969c-2.726 1.185-5.444 1.914-8.163 2.643l-1.224-1.334c.803-1.407 2.003-4.115 2.346-4.01 2.346.714 6.254-2.938 7.041 2.7zm254.075-22.091c1.609-.765 3.17-1.134 4.866-1.534v7.846l-4.913 1.737c0-2.59 0-5.12.047-8.049zM358.84 123.933c-4.41.967-6.717-1.01-8.307-4.679h9.589c-.31 1.692-.58 3.161-1.283 4.68zm335.146-43.179c-.166 1.487-.343 2.55-.519 3.61-2.43-.508-4.556-.754-6.524-1.447-1-.353-1.718-1.51-2.563-2.303.843-.536 1.724-1.572 2.522-1.512 2.375.178 4.719.787 7.084 1.652zM479.812 836.008c1.188 1.41 1.921 2.815 2.958 4.799h-8.421l-.504-4.805c2.03 0 3.77 0 5.967.006z"/>
  <path fill="#FF8E00" d="M300.283 129.687c1.969.51 3.967.99 6.063 1.492.3 4.472-1.242 6.124-6.29 6.652 0-2.461 0-4.929.157-7.818.158-.421.1-.357.07-.326zm223.644 731.456c-.094 7.153-4.998 2.281-7.657 4.222v-5.55c2.615.302 5.109.589 7.657 1.328zM571.963 890c-4.3.555-4.377-1.653-3.61-4.81 2.647.47 6.22-2.316 7.45 2.445.12.464-2.204 1.561-3.84 2.365zM507.65 695.624c6.334-.787 6.785-.244 5.191 5.86-5.478.867-6.027.29-5.192-5.86zM110.947 934.809c-3.113 1.926-6.188 3.433-9.142 4.88-1.6-5.822 4.16-5.28 6.705-7.542.09-.08 1.618 1.459 2.437 2.662zm224.997-797.564c-.5 4.098-.5 4.098-7.445 3.429-.356-4.247 1.927-5.439 7.445-3.429zM133.883 910.916c-.511 2.062-1.049 3.725-1.753 5.901-5.636-4.113-4.187 4.604-8.414 4.204 1.356-3.207 1.045-7.411 6.247-7.197.32.013.503-1.75 1.11-2.25.726-.599 1.839-.727 2.81-.658zm222.254-32.492c.458 2.22.773 4.077 1.089 5.933l-1.092 1.21c-1.706-1.063-4.623-1.902-4.871-3.236-.54-2.898 1.362-4.806 4.874-3.907zM700.048 67.97c-3.026.618-6.088 1.27-9.29 1.95l-.459-4.915c2.523 0 4.996-.182 7.414.101.829.097 1.52 1.362 2.252 2.533-.022.44.046.366.083.331zM339.99 252.647c.809-1.67 1.624-2.931 2.44-4.193 2.298 8.356 2.04 9.12-2.214 9.33a793.208 793.208 0 0 1-.226-5.137zm216.971 333.297c.365 4.489-2.392 5.747-6.579 6.065v-6.002c1.932 0 3.86 0 6.237.022.45.021.377-.048.342-.085zM268.97 627.952c-.033 1.752-.033 3.541-.033 5.837l-5.56.266v-6.047c1.64 0 3.226 0 5.257.025.445.025.371-.044.337-.08zm97.124-178.806-.256 5.542h-5.536v-5.734c1.724.255 3.399.503 5.468.501.394-.25.324-.31.324-.31z"/>
  <path fill="#FF8E00" d="M366.194 449.24c-.542-7.995-.507-8.046 5.885-8.06l-1.478 6.356c-1.162.37-2.498.796-4.17 1.416-.337.194-.267.253-.237.288zm83.68 367.65h-5.616v-5.638h5.487c0 1.687 0 3.354.05 5.37.05.348.08.268.08.268zM803.97 659.952c-.034 1.43-.034 2.897-.034 4.552-.934.292-1.818.559-2.696.845-.744.243-1.482.507-2.2.755-2.977-6.08-2.977-6.08 4.614-6.07.424.024.35-.045.316-.082zm-394.924 123.02c-1.75-.034-3.537-.034-5.299-.034-1.388-5.628-.905-6.167 5.244-5.472 0 1.543 0 3.137-.025 5.173-.025.44.043.367.08.333zM344.87 149.365a95.952 95.952 0 0 1 2.62 2.608l-.943 1.083c-2.634-1.444-7.433 2.759-8.931-3.939 2.796 0 4.867 0 7.254.248zm1.88 22.08c-1.584.127-2.807.449-4.417.872l-.425-4.999h7.74c-1 1.704-1.77 3.012-2.898 4.127zm220.769 482.317c-.866-1.472-1.33-2.767-1.947-4.488h7.743l-.604 4.666c-1.644 0-3.217 0-5.192-.178zM360.952 886.006c2.225 1.963 1.708 4.312-.885 4.864-1.444.308-3.047-.132-4.578-.236l-.574-2.012c1.878-.874 3.757-1.747 6.037-2.616zm14.007-139.996c1.161 1.32 1.885 2.634 3.001 4.66h-7.993c.908-2.347.664-5.426 4.992-4.66zm-41.955-483.174c1.719-1.432 3.43-2.469 5.142-3.505l.636 1.18-1.99 6.022c-1.02-.562-4.833 1.502-3.788-3.697zm-33.861 8.758c.004-2.593.004-5.24.004-9.455 2.054 1.464 4.482 2.383 4.508 3.367.073 2.7-.892 5.398-4.516 5.632.085.473.001.402.004.456zm42.855-143.307c-.074-5.407 3.672-2.784 5.691-3.115.78-.128 1.867 1.612 2.814 2.5l-.841 1.107c-2.556 0-5.112 0-7.664-.492zm652.422 883.875c-1.93-1.35-3.477-2.579-5.025-3.807l.853-1.06h7.055c-.667 2.034-1.203 3.67-1.755 5.301-.009.026-.239.011-.342-.036-.146-.067-.27-.182-.786-.398zM402.99 774.001c-1.73 1.138-3.454 1.839-5.695 2.75v-6.852c1.465 2.497 5.833-1.156 5.694 4.102zm119.34-159.267c.244-1.071.788-2.463 1.207-2.427 1.71.15 3.383.737 4.967 1.137l-.814 4.314c-2.387.431-4.77.99-5.36-3.024zm479.818 398.416c.58 1.811.742 3.571.912 5.413-4.009 1.142-6.034.105-5.99-3.95 1.6-.52 3.13-1.017 5.078-1.463zm-30.74-23.517c-5.502.664-5.502.664-7.043-4.536 5.284-3.536 5.178 1.36 6.682 4.364.275.251.332.198.361.172zM167.504 886.456c-.633-2.353-1.697-5.282 1.705-5.868 1.55-.267 3.5 1.783 5.268 2.782l-.638 1.156c-1.989.408-3.977.815-6.17 1.56-.203.34-.165.37-.165.37zm622.779-695.45c-1.172-.998-1.961-1.99-2.751-2.981 1.379-.379 3.1-1.445 4.054-.97 1.353.672 2.141 2.481 3.17 3.804l-1.153 1.045c-.98-.297-1.96-.594-3.32-.898zM333.875 693.983c-1.065-1.743-1.697-3.483-2.507-5.714h6.939c-1.711 2.447-2.855 4.083-4.432 5.714zm-58.859-434.077c4.697-2.246 2.21 1.568 3.395 2.854h-8.329c.043-3.724 1.47-4.665 4.934-2.854zM160.92 890.94c.099 5.386-3.99 5.064-7.641 5.394v-3.893c2.523-.425 4.749-.8 7.345-1.303.37-.128.297-.197.297-.197zM14.215 1019.39c-.16-1.852-.16-3.335-.16-5.095l6.63-1.173.632.989c-2.314 1.883-4.628 3.767-7.102 5.28zm375.539-259.95c1.263 6.096-3.31 3.322-5.518 3.986-.289-4.757.818-5.686 5.518-3.986zm417.619 185.444c1.51.372 2.75.524 3.963.672-1.166 4.58-3.153 5.132-8.543 1.645 1.588-.935 2.95-1.736 4.58-2.317zM740.147 96.626c-.502 1.972.864 5.173-2.494 4.138-1.371-.423-2.002-3.247-3.542-6.001 3.124.345 4.803.53 6.483.717-.016.121-.004.256-.054.361-.07.145-.187.266-.393.785zM338.335 130.05c1.383-.212 2.307-.384 3.449-.596l1.392 5.19h-6.18c.278-1.436.579-2.994 1.339-4.594zm150.348-55.552c.234 1.837.234 3.317.234 6.378-2.107-1.42-4.42-2.133-4.712-3.337-.792-3.27 1.536-3.837 4.478-3.04zm-38.88 742.479c1.881.006 3.804.006 6.16.006l-1.315 4.801h-4.815c.336-1.657.61-3.008.463-4.626-.422-.268-.451-.188-.493-.181zM830.116 364.89c-5.232 1.702-4.708-1.572-4.404-5.136.105-.585.232-.711.36-.837h4.157c0 1.821 0 3.32.231 5.113.104.42-.024.547-.344.86z"/>
  <path fill="#FF8E00" d="M161.028 891.047c.035-1.516.035-3.069.035-4.975 2.061 0 3.78 0 5.97.192.47.192.433.161.44.158-.704 1.34-1.414 2.683-2.412 4.57-.682 0-1.988 0-3.717-.026-.423-.025-.35.044-.316.08zm232.355-122.051c-.889-1.477-1.358-2.952-1.93-4.751h5.504c0 1.182.41 2.578-.111 3.323-.557.797-1.992.98-3.463 1.428zm65.634 58.994c-1.682-1.358-2.93-2.721-4.862-4.834h7.402c-.814 1.866-1.46 3.346-2.54 4.833zm-193.432-16.827c-.915-1.016-1.426-2.157-2.178-3.837h5.962c.523 3.42.523 3.42-3.784 3.837zm43.835-48.593c-.31-1.59-.31-2.863-.31-4.347h4.676v4.664c-1.28 0-2.667 0-4.365-.316zm222.897-153.254 1.077-5.052 3.778-.295c.156.459.36.775.283.875-1.278 1.66 1.216 5.933-4.156 5.01-.728-.285-.855-.411-.982-.538zM342.03 84.047c.033-1.424.033-2.885.033-4.693h4.717v4.638c-1.466 0-2.724 0-4.42-.025-.439-.025-.365.043-.33.08zm165.98-23.985c1.32-1.17 2.636-1.898 4.604-2.988l.46 5.77c-2.138-.45-4.963 2.084-5.064-2.782zm317.486 299.42c-1.759-.657-3.952-1.114-4.761-2.426-1.795-2.909-.899-4.642 2.163-3.947 1.117 2.058 1.95 3.594 2.978 5.468.068.466-.06.592-.38.905zm-707.475 563.47c1.538-1.125 3.074-1.798 4.61-2.47l.877.872c-.555 1.19-.902 3.162-1.717 3.38-1.063.284-2.497-.822-3.77-1.782zm286.99-502.759c.93-1.178 1.864-1.948 2.798-2.718.273 1.119.886 2.286.734 3.343-.186 1.284-1.018 2.475-1.873 4.382-.734-2.038-1.195-3.318-1.659-5.007zM149.389 897.045a191.82 191.82 0 0 0 3.424-.419v4.107l-3.714.193c-.056-1.282-.113-2.563.29-3.881zm-76.914 66.568c1.294-1.472 2.936-2.657 4.986-4.136 1.426 6.075-2.431 4.142-4.986 4.136zm124.833-101.564c1.248-.037 2.055-.037 4.133-.037l-4.095 4.5-1.42-.808c.313-1.207.626-2.413 1.382-3.655zM78 959.218c.05-1.235.098-2.052.15-2.935l5.363.508.234.906c-1.916.647-3.833 1.293-5.748 1.52zM570.523 740.49c1.52-3.058 3.424-3.802 5.925-.47.107.422-.019.55-.65.73-1.91.145-3.316.236-4.72.327-.124-.13-.248-.26-.555-.587zm25.591-.378c1.986-2.322 4.054-2.905 5.842.598-.022.367.046.294-.286.282-1.884-.11-3.435-.21-4.987-.308l-.57-.572zm176.775 242.003c1.496-.027 2.804.138 4.112.304l-.19 1.455c-1.328-.21-2.656-.42-4.234-.905-.125-.404-.001-.534.312-.854zM351.827 661.921c.336-.93 1.028-1.705 1.72-2.479l1.008.907c-.791.576-1.582 1.153-2.728 1.572zm229.713 78.555a11.023 11.023 0 0 1 4.329-.75c.078.353.131.276-.198.27-1.417.356-2.504.717-3.59 1.078a86.46 86.46 0 0 1-.542-.598zm43.348 68.411c-.875.584-1.936.973-2.997 1.363l-.29-.802c.735-.242 1.47-.484 2.465-.933.385-.079.51.05.822.372zm165.226-149.775c.378-.406.943-.619 1.509-.832-.167.34-.333.68-.72 1.212-.347.065-.474-.061-.79-.38zm-257.228-49.224c-.378.406-.943.619-1.509.832.167-.34.333-.68.72-1.212.347-.065.474.061.79.38zm289.074 320.41c.02-.539.296-.803.571-1.067-.105.447-.21.895-.57 1.067zM343.612 468.347c.473-.3.857-.234 1.24-.166-.442.177-.886.355-1.24.166zM821.67 927.752c-.245-.006-.302-.2-.358-.392.182.068.365.137.358.392z"/>
</svg>
