<svg viewBox="185.325 125.055 188.647 193.061" width="188.647" height="193.061" xmlns="http://www.w3.org/2000/svg">
  <path d="M 204.945 229.147 C 204.697 226.66 204.569 224.138 204.569 221.585 C 204.569 219.033 204.697 216.511 204.945 214.023 L 185.325 191.897 L 206.776 154.743 L 235.748 160.671 C 239.828 157.727 244.215 155.181 248.851 153.093 L 258.198 125.055 L 301.1 125.055 L 310.446 153.093 C 315.083 155.181 319.47 157.727 323.549 160.671 L 352.521 154.743 L 373.972 191.897 L 354.352 214.023 C 354.601 216.511 354.728 219.033 354.728 221.585 C 354.728 224.138 354.601 226.66 354.352 229.147 L 373.972 251.273 L 352.521 288.428 L 323.549 282.499 C 319.47 285.444 315.083 287.99 310.446 290.078 L 301.1 318.116 L 258.198 318.116 L 248.851 290.078 C 244.215 287.99 239.828 285.444 235.748 282.499 L 206.776 288.428 L 185.325 251.273 L 204.945 229.147 Z M 275.056 205.407 C 273.547 205.982 272.129 206.79 270.863 207.873 C 269.524 209.019 268.2 210.485 267.287 212.189 C 266.307 214.02 265.525 216.613 265.314 218.601 C 265.128 220.363 265.298 221.859 265.807 223.534 C 266.371 225.388 267.565 227.667 268.767 229.206 C 269.862 230.608 270.962 231.645 272.59 232.535 C 274.491 233.576 277.448 234.582 279.742 234.755 C 281.875 234.916 284.092 234.431 285.907 233.769 C 287.595 233.153 289.012 232.274 290.347 231.056 C 291.791 229.738 293.286 227.894 294.169 226 C 295.066 224.077 295.623 221.676 295.649 219.588 C 295.674 217.569 295.12 215.401 294.416 213.669 C 293.763 212.064 292.89 210.734 291.703 209.476 C 290.427 208.123 288.764 206.739 286.894 205.9 C 284.897 205.004 282.067 204.449 279.988 204.42 C 278.174 204.395 276.585 204.824 275.056 205.407 Z" stroke-width="3" stroke-linecap="round" stroke-linejoin="round" style=""/>
</svg>
