{
	"asset":{
		"generator":"Khronos glTF Blender I/O v4.0.44",
		"version":"2.0"
	},
	"scene":0,
	"scenes":[
		{
			"name":"Scene",
			"nodes":[
				6,
				7,
				8
			]
		}
	],
	"nodes":[
		{
			"name":"Camera",
			"rotation":[
				0.08988495171070099,
				-0.010920483618974686,
				-0.09372950345277786,
				0.9914717674255371
			],
			"scale":[
				0.9999998807907104,
				1,
				0.9999998807907104
			],
			"translation":[
				0.030794812366366386,
				0.02084527164697647,
				-0.0712319165468216
			]
		},
		{
			"name":"Tail",
			"rotation":[
				4.009836018781243e-08,
				4.0279708457546803e-08,
				1.5078094328657698e-09,
				1
			],
			"scale":[
				0.9999998807907104,
				0.9999997615814209,
				0.9999998807907104
			],
			"translation":[
				-9.951033064226067e-08,
				1.5729701519012451,
				1.0293830143837113e-07
			]
		},
		{
			"children":[
				1
			],
			"name":"Mid Back",
			"rotation":[
				-0.0345894992351532,
				-1.4704521333896992e-07,
				-0.02363264001905918,
				0.999122142791748
			],
			"scale":[
				1,
				1,
				0.9999998807907104
			],
			"translation":[
				-1.794899162632646e-08,
				1.3106229305267334,
				1.0155486762641885e-07
			]
		},
		{
			"children":[
				2
			],
			"name":"Mid Front",
			"rotation":[
				-0.07173746079206467,
				1.211809177448231e-07,
				-0.04901301488280296,
				0.9962185621261597
			],
			"translation":[
				2.2351741790771484e-08,
				1.216700792312622,
				-7.450580596923828e-09
			]
		},
		{
			"children":[
				3
			],
			"name":"Head",
			"rotation":[
				-0.33649998903274536,
				0.4343993067741394,
				0.8212872743606567,
				0.15346750617027283
			],
			"scale":[
				1.0000001192092896,
				1,
				1.0000001192092896
			],
			"translation":[
				1.1920928955078125e-07,
				0,
				0
			]
		},
		{
			"mesh":0,
			"name":"Player",
			"skin":0
		},
		{
			"children":[
				5,
				0,
				4
			],
			"name":"Armature",
			"rotation":[
				-0.41449934244155884,
				0.2578669786453247,
				0.12371920049190521,
				0.8639379143714905
			],
			"scale":[
				2.491211414337158,
				2.491211414337158,
				2.491211414337158
			],
			"translation":[
				0,
				0,
				-7.251743316650391
			]
		},
		{
			"name":"Side Ref",
			"rotation":[
				0.5,
				0.5,
				-0.5,
				0.5
			],
			"scale":[
				3.4324018955230713,
				3.4324018955230713,
				3.4324018955230713
			],
			"translation":[
				7.6284918785095215,
				-0.6586470603942871,
				-1.743082880973816
			]
		},
		{
			"name":"Front Ref",
			"rotation":[
				0,
				0.7071066498756409,
				-0.70710688829422,
				5.338507236274381e-08
			],
			"scale":[
				3.4324018955230713,
				3.4324018955230713,
				3.4324018955230713
			],
			"translation":[
				-0.14062689244747162,
				0.29876264929771423,
				12.135971069335938
			]
		}
	],
	"animations":[
		{
			"channels":[
				{
					"sampler":0,
					"target":{
						"node":0,
						"path":"translation"
					}
				},
				{
					"sampler":1,
					"target":{
						"node":0,
						"path":"rotation"
					}
				},
				{
					"sampler":2,
					"target":{
						"node":0,
						"path":"scale"
					}
				},
				{
					"sampler":3,
					"target":{
						"node":4,
						"path":"translation"
					}
				},
				{
					"sampler":4,
					"target":{
						"node":4,
						"path":"rotation"
					}
				},
				{
					"sampler":5,
					"target":{
						"node":4,
						"path":"scale"
					}
				},
				{
					"sampler":6,
					"target":{
						"node":3,
						"path":"translation"
					}
				},
				{
					"sampler":7,
					"target":{
						"node":3,
						"path":"rotation"
					}
				},
				{
					"sampler":8,
					"target":{
						"node":3,
						"path":"scale"
					}
				},
				{
					"sampler":9,
					"target":{
						"node":2,
						"path":"translation"
					}
				},
				{
					"sampler":10,
					"target":{
						"node":2,
						"path":"rotation"
					}
				},
				{
					"sampler":11,
					"target":{
						"node":2,
						"path":"scale"
					}
				},
				{
					"sampler":12,
					"target":{
						"node":1,
						"path":"translation"
					}
				},
				{
					"sampler":13,
					"target":{
						"node":1,
						"path":"rotation"
					}
				},
				{
					"sampler":14,
					"target":{
						"node":1,
						"path":"scale"
					}
				},
				{
					"sampler":15,
					"target":{
						"node":6,
						"path":"translation"
					}
				},
				{
					"sampler":16,
					"target":{
						"node":6,
						"path":"rotation"
					}
				},
				{
					"sampler":17,
					"target":{
						"node":6,
						"path":"scale"
					}
				}
			],
			"name":"ArmatureAction.002",
			"samplers":[
				{
					"input":9,
					"interpolation":"STEP",
					"output":10
				},
				{
					"input":9,
					"interpolation":"STEP",
					"output":11
				},
				{
					"input":9,
					"interpolation":"STEP",
					"output":12
				},
				{
					"input":9,
					"interpolation":"STEP",
					"output":13
				},
				{
					"input":9,
					"interpolation":"STEP",
					"output":14
				},
				{
					"input":9,
					"interpolation":"STEP",
					"output":15
				},
				{
					"input":9,
					"interpolation":"STEP",
					"output":16
				},
				{
					"input":17,
					"interpolation":"LINEAR",
					"output":18
				},
				{
					"input":9,
					"interpolation":"LINEAR",
					"output":19
				},
				{
					"input":9,
					"interpolation":"LINEAR",
					"output":20
				},
				{
					"input":17,
					"interpolation":"LINEAR",
					"output":21
				},
				{
					"input":9,
					"interpolation":"LINEAR",
					"output":22
				},
				{
					"input":9,
					"interpolation":"LINEAR",
					"output":23
				},
				{
					"input":17,
					"interpolation":"LINEAR",
					"output":24
				},
				{
					"input":9,
					"interpolation":"STEP",
					"output":25
				},
				{
					"input":9,
					"interpolation":"STEP",
					"output":26
				},
				{
					"input":9,
					"interpolation":"STEP",
					"output":27
				},
				{
					"input":9,
					"interpolation":"STEP",
					"output":28
				}
			]
		},
		{
			"channels":[
				{
					"sampler":0,
					"target":{
						"node":5,
						"path":"translation"
					}
				},
				{
					"sampler":1,
					"target":{
						"node":5,
						"path":"rotation"
					}
				},
				{
					"sampler":2,
					"target":{
						"node":5,
						"path":"scale"
					}
				}
			],
			"name":"PlayerAction",
			"samplers":[
				{
					"input":29,
					"interpolation":"LINEAR",
					"output":30
				},
				{
					"input":29,
					"interpolation":"LINEAR",
					"output":31
				},
				{
					"input":29,
					"interpolation":"LINEAR",
					"output":32
				}
			]
		},
		{
			"channels":[
				{
					"sampler":0,
					"target":{
						"node":7,
						"path":"translation"
					}
				},
				{
					"sampler":1,
					"target":{
						"node":7,
						"path":"rotation"
					}
				},
				{
					"sampler":2,
					"target":{
						"node":7,
						"path":"scale"
					}
				}
			],
			"name":"Side RefAction",
			"samplers":[
				{
					"input":29,
					"interpolation":"LINEAR",
					"output":33
				},
				{
					"input":29,
					"interpolation":"LINEAR",
					"output":34
				},
				{
					"input":29,
					"interpolation":"LINEAR",
					"output":35
				}
			]
		},
		{
			"channels":[
				{
					"sampler":0,
					"target":{
						"node":8,
						"path":"translation"
					}
				},
				{
					"sampler":1,
					"target":{
						"node":8,
						"path":"rotation"
					}
				},
				{
					"sampler":2,
					"target":{
						"node":8,
						"path":"scale"
					}
				}
			],
			"name":"Front RefAction",
			"samplers":[
				{
					"input":29,
					"interpolation":"LINEAR",
					"output":36
				},
				{
					"input":29,
					"interpolation":"LINEAR",
					"output":37
				},
				{
					"input":29,
					"interpolation":"LINEAR",
					"output":38
				}
			]
		}
	],
	"materials":[
		{
			"doubleSided":true,
			"name":"Material.001",
			"pbrMetallicRoughness":{
				"baseColorTexture":{
					"index":0
				},
				"metallicFactor":0,
				"roughnessFactor":0.5
			}
		}
	],
	"meshes":[
		{
			"name":"Sphere",
			"primitives":[
				{
					"attributes":{
						"COLOR_0":0,
						"POSITION":1,
						"NORMAL":2,
						"TEXCOORD_0":3,
						"TEXCOORD_1":4,
						"JOINTS_0":5,
						"WEIGHTS_0":6
					},
					"indices":7,
					"material":0
				}
			]
		}
	],
	"textures":[
		{
			"sampler":0,
			"source":0
		}
	],
	"images":[
		{
			"mimeType":"image/png",
			"name":"Face test 2",
			"uri":"Face%20test%202.png"
		}
	],
	"skins":[
		{
			"inverseBindMatrices":8,
			"joints":[
				0,
				4,
				3,
				2,
				1
			],
			"name":"Armature"
		}
	],
	"accessors":[
		{
			"bufferView":0,
			"componentType":5123,
			"count":11346,
			"normalized":true,
			"type":"VEC4"
		},
		{
			"bufferView":1,
			"componentType":5126,
			"count":11346,
			"max":[
				2.09155011177063,
				4.289592742919922,
				6.376353740692139
			],
			"min":[
				-2.0653090476989746,
				-2.430062770843506,
				-7.308584213256836
			],
			"type":"VEC3"
		},
		{
			"bufferView":2,
			"componentType":5126,
			"count":11346,
			"type":"VEC3"
		},
		{
			"bufferView":3,
			"componentType":5126,
			"count":11346,
			"type":"VEC2"
		},
		{
			"bufferView":4,
			"componentType":5126,
			"count":11346,
			"type":"VEC2"
		},
		{
			"bufferView":5,
			"componentType":5121,
			"count":11346,
			"type":"VEC4"
		},
		{
			"bufferView":6,
			"componentType":5126,
			"count":11346,
			"type":"VEC4"
		},
		{
			"bufferView":7,
			"componentType":5123,
			"count":16782,
			"type":"SCALAR"
		},
		{
			"bufferView":8,
			"componentType":5126,
			"count":5,
			"type":"MAT4"
		},
		{
			"bufferView":9,
			"componentType":5126,
			"count":2,
			"max":[
				1.6666666666666667
			],
			"min":[
				0
			],
			"type":"SCALAR"
		},
		{
			"bufferView":10,
			"componentType":5126,
			"count":2,
			"type":"VEC3"
		},
		{
			"bufferView":11,
			"componentType":5126,
			"count":2,
			"type":"VEC4"
		},
		{
			"bufferView":12,
			"componentType":5126,
			"count":2,
			"type":"VEC3"
		},
		{
			"bufferView":13,
			"componentType":5126,
			"count":2,
			"type":"VEC3"
		},
		{
			"bufferView":14,
			"componentType":5126,
			"count":2,
			"type":"VEC4"
		},
		{
			"bufferView":15,
			"componentType":5126,
			"count":2,
			"type":"VEC3"
		},
		{
			"bufferView":16,
			"componentType":5126,
			"count":2,
			"type":"VEC3"
		},
		{
			"bufferView":17,
			"componentType":5126,
			"count":41,
			"max":[
				1.6666666666666667
			],
			"min":[
				0
			],
			"type":"SCALAR"
		},
		{
			"bufferView":18,
			"componentType":5126,
			"count":41,
			"type":"VEC4"
		},
		{
			"bufferView":19,
			"componentType":5126,
			"count":2,
			"type":"VEC3"
		},
		{
			"bufferView":20,
			"componentType":5126,
			"count":2,
			"type":"VEC3"
		},
		{
			"bufferView":21,
			"componentType":5126,
			"count":41,
			"type":"VEC4"
		},
		{
			"bufferView":22,
			"componentType":5126,
			"count":2,
			"type":"VEC3"
		},
		{
			"bufferView":23,
			"componentType":5126,
			"count":2,
			"type":"VEC3"
		},
		{
			"bufferView":24,
			"componentType":5126,
			"count":41,
			"type":"VEC4"
		},
		{
			"bufferView":25,
			"componentType":5126,
			"count":2,
			"type":"VEC3"
		},
		{
			"bufferView":26,
			"componentType":5126,
			"count":2,
			"type":"VEC3"
		},
		{
			"bufferView":27,
			"componentType":5126,
			"count":2,
			"type":"VEC4"
		},
		{
			"bufferView":28,
			"componentType":5126,
			"count":2,
			"type":"VEC3"
		},
		{
			"bufferView":29,
			"componentType":5126,
			"count":1,
			"max":[
				0
			],
			"min":[
				0
			],
			"type":"SCALAR"
		},
		{
			"bufferView":30,
			"componentType":5126,
			"count":1,
			"type":"VEC3"
		},
		{
			"bufferView":31,
			"componentType":5126,
			"count":1,
			"type":"VEC4"
		},
		{
			"bufferView":32,
			"componentType":5126,
			"count":1,
			"type":"VEC3"
		},
		{
			"bufferView":33,
			"componentType":5126,
			"count":1,
			"type":"VEC3"
		},
		{
			"bufferView":34,
			"componentType":5126,
			"count":1,
			"type":"VEC4"
		},
		{
			"bufferView":35,
			"componentType":5126,
			"count":1,
			"type":"VEC3"
		},
		{
			"bufferView":36,
			"componentType":5126,
			"count":1,
			"type":"VEC3"
		},
		{
			"bufferView":37,
			"componentType":5126,
			"count":1,
			"type":"VEC4"
		},
		{
			"bufferView":38,
			"componentType":5126,
			"count":1,
			"type":"VEC3"
		}
	],
	"bufferViews":[
		{
			"buffer":0,
			"byteLength":90768,
			"byteOffset":0,
			"target":34962
		},
		{
			"buffer":0,
			"byteLength":136152,
			"byteOffset":90768,
			"target":34962
		},
		{
			"buffer":0,
			"byteLength":136152,
			"byteOffset":226920,
			"target":34962
		},
		{
			"buffer":0,
			"byteLength":90768,
			"byteOffset":363072,
			"target":34962
		},
		{
			"buffer":0,
			"byteLength":90768,
			"byteOffset":453840,
			"target":34962
		},
		{
			"buffer":0,
			"byteLength":45384,
			"byteOffset":544608,
			"target":34962
		},
		{
			"buffer":0,
			"byteLength":181536,
			"byteOffset":589992,
			"target":34962
		},
		{
			"buffer":0,
			"byteLength":33564,
			"byteOffset":771528,
			"target":34963
		},
		{
			"buffer":0,
			"byteLength":320,
			"byteOffset":805092
		},
		{
			"buffer":0,
			"byteLength":8,
			"byteOffset":805412
		},
		{
			"buffer":0,
			"byteLength":24,
			"byteOffset":805420
		},
		{
			"buffer":0,
			"byteLength":32,
			"byteOffset":805444
		},
		{
			"buffer":0,
			"byteLength":24,
			"byteOffset":805476
		},
		{
			"buffer":0,
			"byteLength":24,
			"byteOffset":805500
		},
		{
			"buffer":0,
			"byteLength":32,
			"byteOffset":805524
		},
		{
			"buffer":0,
			"byteLength":24,
			"byteOffset":805556
		},
		{
			"buffer":0,
			"byteLength":24,
			"byteOffset":805580
		},
		{
			"buffer":0,
			"byteLength":164,
			"byteOffset":805604
		},
		{
			"buffer":0,
			"byteLength":656,
			"byteOffset":805768
		},
		{
			"buffer":0,
			"byteLength":24,
			"byteOffset":806424
		},
		{
			"buffer":0,
			"byteLength":24,
			"byteOffset":806448
		},
		{
			"buffer":0,
			"byteLength":656,
			"byteOffset":806472
		},
		{
			"buffer":0,
			"byteLength":24,
			"byteOffset":807128
		},
		{
			"buffer":0,
			"byteLength":24,
			"byteOffset":807152
		},
		{
			"buffer":0,
			"byteLength":656,
			"byteOffset":807176
		},
		{
			"buffer":0,
			"byteLength":24,
			"byteOffset":807832
		},
		{
			"buffer":0,
			"byteLength":24,
			"byteOffset":807856
		},
		{
			"buffer":0,
			"byteLength":32,
			"byteOffset":807880
		},
		{
			"buffer":0,
			"byteLength":24,
			"byteOffset":807912
		},
		{
			"buffer":0,
			"byteLength":4,
			"byteOffset":807936
		},
		{
			"buffer":0,
			"byteLength":12,
			"byteOffset":807940
		},
		{
			"buffer":0,
			"byteLength":16,
			"byteOffset":807952
		},
		{
			"buffer":0,
			"byteLength":12,
			"byteOffset":807968
		},
		{
			"buffer":0,
			"byteLength":12,
			"byteOffset":807980
		},
		{
			"buffer":0,
			"byteLength":16,
			"byteOffset":807992
		},
		{
			"buffer":0,
			"byteLength":12,
			"byteOffset":808008
		},
		{
			"buffer":0,
			"byteLength":12,
			"byteOffset":808020
		},
		{
			"buffer":0,
			"byteLength":16,
			"byteOffset":808032
		},
		{
			"buffer":0,
			"byteLength":12,
			"byteOffset":808048
		}
	],
	"samplers":[
		{
			"magFilter":9729,
			"minFilter":9987
		}
	],
	"buffers":[
		{
			"byteLength":808060,
			"uri":"model.bin"
		}
	]
}
