{
	"asset":{
		"generator":"Khronos glTF Blender I/O v4.0.44",
		"version":"2.0"
	},
	"extensionsUsed":[
		"KHR_materials_unlit"
	],
	"scene":0,
	"scenes":[
		{
			"name":"Scene",
			"nodes":[
				8
			]
		}
	],
	"nodes":[
		{
			"name":"Face",
			"rotation":[
				-0.27623528242111206,
				0,
				0,
				0.961090087890625
			],
			"translation":[
				0,
				1.538567066192627,
				3.725290298461914e-09
			]
		},
		{
			"children":[
				0
			],
			"name":"Head",
			"rotation":[
				-0.004608795512467623,
				0,
				0,
				0.99998939037323
			],
			"scale":[
				1,
				1,
				0.9999999403953552
			],
			"translation":[
				0,
				1.8755497932434082,
				1.8189894035458565e-12
			]
		},
		{
			"children":[
				1
			],
			"name":"Neck",
			"translation":[
				0,
				3.7779629230499268,
				1.8189894035458565e-12
			]
		},
		{
			"children":[
				2
			],
			"name":"Front",
			"rotation":[
				-1.68628575920593e-05,
				0,
				0,
				1
			],
			"translation":[
				0,
				-1.388981580734253,
				6.368740287143737e-05
			]
		},
		{
			"name":"Tail",
			"rotation":[
				7.275957614183426e-12,
				0,
				0,
				1
			],
			"translation":[
				0,
				1.1730051040649414,
				1.7498155702178053e-12
			]
		},
		{
			"children":[
				4
			],
			"name":"Tailbone",
			"rotation":[
				9.094947017729282e-12,
				0,
				0,
				1
			],
			"translation":[
				0,
				3.763312578201294,
				-1.627404287718459e-11
			]
		},
		{
			"children":[
				5
			],
			"name":"Back",
			"rotation":[
				1,
				0,
				0,
				2.2936863388167694e-05
			],
			"translation":[
				0,
				-1.388981580734253,
				6.368740287143737e-05
			]
		},
		{
			"mesh":0,
			"name":"Mesh",
			"skin":0
		},
		{
			"children":[
				7,
				3,
				6
			],
			"name":"Armature",
			"rotation":[
				-0.7070906162261963,
				0,
				0,
				0.7071230411529541
			],
			"translation":[
				0,
				0,
				0.3859071135520935
			]
		}
	],
	"materials":[
		{
			"doubleSided":true,
			"extensions":{
				"KHR_materials_unlit":{}
			},
			"name":"Material",
			"pbrMetallicRoughness":{
				"baseColorTexture":{
					"index":0
				},
				"metallicFactor":0,
				"roughnessFactor":0.9
			}
		}
	],
	"meshes":[
		{
			"name":"Cube",
			"primitives":[
				{
					"attributes":{
						"POSITION":0,
						"NORMAL":1,
						"TEXCOORD_0":2,
						"JOINTS_0":3,
						"WEIGHTS_0":4
					},
					"indices":5,
					"material":0
				}
			]
		}
	],
	"textures":[
		{
			"sampler":0,
			"source":0
		}
	],
	"images":[
		{
			"mimeType":"image/jpeg",
			"name":"fish_basic_red",
			"uri":"fish_basic_red.jpg"
		}
	],
	"skins":[
		{
			"inverseBindMatrices":6,
			"joints":[
				3,
				2,
				1,
				0,
				6,
				5,
				4
			],
			"name":"Armature"
		}
	],
	"accessors":[
		{
			"bufferView":0,
			"componentType":5126,
			"count":252,
			"max":[
				1.220503568649292,
				2.7675552368164062,
				8.374640464782715
			],
			"min":[
				-1.220503568649292,
				-2.7675552368164062,
				-5.53653621673584
			],
			"type":"VEC3"
		},
		{
			"bufferView":1,
			"componentType":5126,
			"count":252,
			"type":"VEC3"
		},
		{
			"bufferView":2,
			"componentType":5126,
			"count":252,
			"type":"VEC2"
		},
		{
			"bufferView":3,
			"componentType":5121,
			"count":252,
			"type":"VEC4"
		},
		{
			"bufferView":4,
			"componentType":5126,
			"count":252,
			"type":"VEC4"
		},
		{
			"bufferView":5,
			"componentType":5123,
			"count":384,
			"type":"SCALAR"
		},
		{
			"bufferView":6,
			"componentType":5126,
			"count":7,
			"type":"MAT4"
		}
	],
	"bufferViews":[
		{
			"buffer":0,
			"byteLength":3024,
			"byteOffset":0,
			"target":34962
		},
		{
			"buffer":0,
			"byteLength":3024,
			"byteOffset":3024,
			"target":34962
		},
		{
			"buffer":0,
			"byteLength":2016,
			"byteOffset":6048,
			"target":34962
		},
		{
			"buffer":0,
			"byteLength":1008,
			"byteOffset":8064,
			"target":34962
		},
		{
			"buffer":0,
			"byteLength":4032,
			"byteOffset":9072,
			"target":34962
		},
		{
			"buffer":0,
			"byteLength":768,
			"byteOffset":13104,
			"target":34963
		},
		{
			"buffer":0,
			"byteLength":448,
			"byteOffset":13872
		}
	],
	"samplers":[
		{
			"magFilter":9728,
			"minFilter":9984
		}
	],
	"buffers":[
		{
			"byteLength":14320,
			"uri":"fish_basic_red.bin"
		}
	]
}
