{
	"asset":{
		"generator":"Khronos glTF Blender I/O v4.0.44",
		"version":"2.0"
	},
	"scene":0,
	"scenes":[
		{
			"name":"Scene",
			"nodes":[
				0,
				1
			]
		}
	],
	"nodes":[
		{
			"mesh":0,
			"name":"Plane",
			"scale":[
				689.8017578125,
				689.8017578125,
				689.8017578125
			],
			"translation":[
				0,
				-337.99725341796875,
				0
			]
		},
		{
			"mesh":1,
			"name":"Sea",
			"scale":[
				1.1090118885040283,
				0.77177894115448,
				1.1090118885040283
			],
			"translation":[
				-621.3234252929688,
				251.1542205810547,
				626.9522705078125
			]
		}
	],
	"materials":[
		{
			"doubleSided":true,
			"name":"Material",
			"pbrMetallicRoughness":{
				"baseColorFactor":[
					0.034583304077386856,
					0.09758585691452026,
					0.4108918309211731,
					1
				],
				"metallicFactor":0,
				"roughnessFactor":0.5
			}
		}
	],
	"meshes":[
		{
			"name":"Plane",
			"primitives":[
				{
					"attributes":{
						"POSITION":0,
						"NORMAL":1,
						"TEXCOORD_0":2,
						"TANGENT":3
					},
					"indices":4
				}
			]
		},
		{
			"name":"Sea",
			"primitives":[
				{
					"attributes":{
						"POSITION":5,
						"NORMAL":6,
						"TEXCOORD_0":7,
						"TANGENT":8
					},
					"indices":9,
					"material":0
				}
			]
		}
	],
	"accessors":[
		{
			"bufferView":0,
			"componentType":5126,
			"count":4,
			"max":[
				1,
				0,
				1
			],
			"min":[
				-1,
				0,
				-1
			],
			"type":"VEC3"
		},
		{
			"bufferView":1,
			"componentType":5126,
			"count":4,
			"type":"VEC3"
		},
		{
			"bufferView":2,
			"componentType":5126,
			"count":4,
			"type":"VEC2"
		},
		{
			"bufferView":3,
			"componentType":5126,
			"count":4,
			"type":"VEC4"
		},
		{
			"bufferView":4,
			"componentType":5123,
			"count":6,
			"type":"SCALAR"
		},
		{
			"bufferView":5,
			"componentType":5126,
			"count":63001,
			"max":[
				1188.281005859375,
				0.9348866939544678,
				63.583030700683594
			],
			"min":[
				-63.281005859375,
				-1.4003907442092896,
				-1188.5830078125
			],
			"type":"VEC3"
		},
		{
			"bufferView":6,
			"componentType":5126,
			"count":63001,
			"type":"VEC3"
		},
		{
			"bufferView":7,
			"componentType":5126,
			"count":63001,
			"type":"VEC2"
		},
		{
			"bufferView":8,
			"componentType":5126,
			"count":63001,
			"type":"VEC4"
		},
		{
			"bufferView":9,
			"componentType":5123,
			"count":375000,
			"type":"SCALAR"
		}
	],
	"bufferViews":[
		{
			"buffer":0,
			"byteLength":48,
			"byteOffset":0,
			"target":34962
		},
		{
			"buffer":0,
			"byteLength":48,
			"byteOffset":48,
			"target":34962
		},
		{
			"buffer":0,
			"byteLength":32,
			"byteOffset":96,
			"target":34962
		},
		{
			"buffer":0,
			"byteLength":64,
			"byteOffset":128,
			"target":34962
		},
		{
			"buffer":0,
			"byteLength":12,
			"byteOffset":192,
			"target":34963
		},
		{
			"buffer":0,
			"byteLength":756012,
			"byteOffset":204,
			"target":34962
		},
		{
			"buffer":0,
			"byteLength":756012,
			"byteOffset":756216,
			"target":34962
		},
		{
			"buffer":0,
			"byteLength":504008,
			"byteOffset":1512228,
			"target":34962
		},
		{
			"buffer":0,
			"byteLength":1008016,
			"byteOffset":2016236,
			"target":34962
		},
		{
			"buffer":0,
			"byteLength":750000,
			"byteOffset":3024252,
			"target":34963
		}
	],
	"buffers":[
		{
			"byteLength":3774252,
			"uri":"world.bin"
		}
	]
}
